<?xml version="1.0" standalone="no"?>
<!DOCTYPE svg PUBLIC "-//W3C//DTD SVG 20010904//EN"
 "http://www.w3.org/TR/2001/REC-SVG-20010904/DTD/svg10.dtd">
<svg version="1.0" xmlns="http://www.w3.org/2000/svg"
 width="3536.000000pt" height="3536.000000pt" viewBox="0 0 3536.000000 3536.000000"
 preserveAspectRatio="xMidYMid meet">
<metadata>
Created by potrace 1.14, written by Peter Selinger 2001-2017
</metadata>
<g transform="translate(0.000000,3536.000000) scale(0.100000,-0.100000)"
fill="#000000" stroke="none">
<path d="M0 17680 l0 -17680 17680 0 17680 0 0 17680 0 17680 -17680 0 -17680
0 0 -17680z m18345 11919 c104 -7 192 -16 193 -20 2 -5 20 -9 40 -9 62 0 252
-23 252 -30 0 -4 54 -13 120 -20 66 -8 120 -17 120 -20 0 -4 45 -13 100 -20
55 -7 100 -16 100 -20 0 -3 45 -13 100 -20 55 -7 100 -17 100 -21 0 -4 38 -13
85 -20 47 -7 85 -15 85 -19 0 -4 41 -13 90 -20 50 -7 90 -16 90 -20 0 -4 34
-13 75 -20 41 -7 75 -16 75 -20 0 -4 34 -13 75 -19 41 -7 75 -16 75 -20 0 -4
28 -13 62 -19 34 -6 64 -15 67 -20 3 -5 33 -14 65 -20 33 -7 62 -16 65 -21 3
-4 23 -11 44 -15 20 -4 37 -10 37 -14 0 -5 27 -14 60 -20 33 -7 60 -16 60 -20
0 -4 27 -14 60 -21 33 -8 60 -17 60 -22 0 -4 25 -13 55 -20 30 -7 55 -15 55
-19 0 -4 25 -12 55 -19 30 -7 55 -16 55 -20 0 -4 23 -14 50 -21 28 -7 50 -17
50 -21 0 -3 20 -12 45 -18 25 -6 45 -15 45 -20 0 -5 16 -12 35 -15 19 -4 40
-13 47 -20 7 -7 34 -19 61 -26 26 -8 47 -18 47 -22 0 -4 18 -12 40 -18 22 -6
40 -14 40 -19 0 -4 23 -14 50 -21 28 -7 50 -17 50 -21 0 -5 18 -14 40 -20 22
-7 40 -15 40 -19 0 -4 20 -13 45 -20 25 -7 45 -16 45 -21 0 -4 18 -14 40 -20
22 -7 40 -15 40 -19 0 -4 20 -13 45 -20 25 -7 45 -16 45 -21 0 -5 11 -11 25
-15 14 -3 25 -10 25 -14 0 -4 20 -14 45 -21 25 -7 45 -17 45 -21 0 -3 16 -12
35 -19 19 -7 35 -16 35 -19 0 -4 18 -12 40 -19 22 -6 40 -16 40 -21 0 -5 18
-14 40 -20 22 -6 40 -14 40 -18 0 -5 16 -14 35 -21 19 -7 35 -16 35 -20 0 -4
18 -13 40 -20 22 -6 40 -15 40 -19 0 -5 16 -14 35 -21 19 -7 35 -16 35 -20 0
-4 18 -14 40 -21 22 -7 40 -17 40 -21 0 -4 16 -13 35 -20 19 -7 35 -16 35 -20
0 -4 16 -13 35 -20 19 -7 35 -16 35 -20 0 -4 16 -13 35 -20 19 -7 35 -16 35
-20 0 -4 15 -13 33 -20 17 -7 41 -21 51 -31 11 -10 26 -18 33 -18 7 0 13 -4
13 -9 0 -5 15 -15 33 -22 17 -7 42 -24 53 -36 12 -13 25 -23 30 -23 5 0 22
-11 38 -25 16 -14 35 -25 43 -25 7 0 16 -7 19 -15 3 -8 21 -19 40 -25 19 -6
34 -16 34 -21 0 -5 12 -15 27 -22 15 -6 36 -20 45 -29 10 -10 25 -18 33 -18 8
0 15 -5 15 -10 0 -6 12 -16 27 -23 15 -6 35 -19 45 -27 30 -27 44 -37 68 -50
27 -14 33 -19 74 -55 16 -14 34 -25 40 -25 6 0 19 -9 29 -20 9 -11 22 -20 29
-20 7 0 24 -12 37 -25 13 -14 29 -25 37 -25 8 0 14 -4 14 -8 0 -5 12 -15 27
-23 15 -8 40 -26 55 -41 16 -16 32 -28 37 -28 4 0 20 -10 34 -22 45 -40 82
-68 90 -68 4 0 20 -12 35 -27 15 -16 40 -34 55 -42 15 -8 27 -18 27 -23 0 -5
11 -13 25 -18 14 -5 25 -13 25 -18 0 -5 12 -15 27 -23 15 -8 42 -27 60 -44 18
-16 45 -39 59 -50 15 -11 45 -37 66 -57 22 -21 43 -38 47 -38 4 0 17 -10 29
-22 11 -13 35 -34 53 -48 18 -14 49 -42 69 -62 20 -21 41 -38 46 -38 5 0 18
-14 29 -30 11 -16 24 -30 30 -30 5 0 18 -9 30 -20 21 -21 165 -156 178 -168
15 -13 58 -56 85 -86 15 -15 33 -33 40 -40 8 -6 35 -33 60 -60 26 -27 74 -77
107 -111 33 -35 80 -86 105 -115 25 -29 56 -65 70 -80 14 -15 45 -51 70 -79
25 -29 56 -65 70 -80 14 -15 45 -51 70 -79 25 -29 60 -69 78 -89 17 -19 32
-42 32 -49 0 -8 7 -14 15 -14 8 0 15 -6 15 -13 0 -12 17 -32 110 -134 17 -18
30 -37 30 -42 0 -5 20 -31 45 -57 25 -27 45 -53 45 -59 0 -5 14 -23 30 -39 17
-16 30 -35 30 -42 0 -6 11 -22 25 -35 13 -13 25 -28 25 -32 0 -8 37 -63 58
-85 7 -8 22 -32 33 -53 10 -21 23 -39 28 -39 5 0 12 -8 15 -17 9 -27 33 -65
44 -72 5 -3 22 -30 37 -58 15 -29 31 -53 35 -53 5 0 21 -26 36 -57 16 -32 32
-59 36 -61 4 -2 20 -29 35 -60 15 -31 31 -59 35 -60 5 -2 18 -25 29 -50 12
-26 25 -49 29 -52 9 -6 50 -95 50 -109 0 -5 6 -14 13 -18 13 -8 67 -122 67
-141 0 -5 6 -12 13 -15 7 -3 19 -24 27 -46 7 -23 19 -45 25 -49 6 -4 24 -42
40 -84 15 -43 31 -78 34 -78 3 0 20 -38 36 -85 16 -47 32 -85 36 -85 4 0 20
-37 34 -82 15 -46 30 -85 34 -88 3 -3 17 -39 30 -80 14 -41 27 -77 31 -80 4
-3 19 -54 35 -115 16 -60 32 -112 36 -115 7 -6 59 -264 59 -297 0 -12 4 -23 9
-25 13 -4 31 -209 31 -356 0 -113 -13 -209 -30 -222 -4 -3 -12 -14 -18 -25
-10 -18 -11 -17 -10 10 1 37 -29 144 -45 160 -7 6 -23 45 -36 86 -14 41 -27
76 -30 79 -3 3 -17 37 -30 75 -13 39 -27 72 -30 75 -3 3 -20 46 -36 95 -17 50
-33 92 -37 95 -4 3 -19 39 -34 80 -15 41 -31 77 -35 80 -4 3 -17 32 -29 65
-12 33 -28 65 -34 70 -7 6 -22 38 -35 73 -13 34 -27 62 -32 62 -4 0 -11 10
-15 23 -10 33 -46 111 -53 117 -10 7 -61 115 -61 128 0 7 -4 12 -10 12 -5 0
-19 20 -30 44 -11 24 -23 46 -28 48 -4 1 -20 29 -35 60 -15 31 -31 58 -35 60
-4 2 -20 29 -35 60 -15 31 -31 58 -35 60 -4 2 -20 28 -36 58 -17 30 -38 64
-48 74 -10 11 -18 25 -18 32 0 7 -8 19 -17 26 -18 13 -33 36 -61 91 -7 15 -18
27 -23 27 -5 0 -18 18 -29 39 -11 22 -26 44 -34 48 -7 4 -20 22 -29 39 -9 17
-27 42 -41 55 -14 13 -26 29 -26 35 0 6 -18 30 -40 54 -22 24 -40 48 -40 53 0
5 -15 26 -32 45 -18 19 -43 46 -55 59 -13 13 -23 28 -23 32 0 5 -15 25 -32 44
-18 20 -53 60 -78 89 -25 29 -74 82 -110 119 -36 37 -83 88 -105 114 -39 47
-60 69 -87 91 -7 6 -33 34 -58 62 -25 29 -51 52 -57 52 -7 0 -13 4 -13 9 0 11
-176 191 -187 191 -4 0 -19 16 -32 35 -13 19 -29 35 -36 35 -7 0 -20 11 -29
25 -9 14 -22 25 -29 25 -6 0 -22 16 -35 35 -12 19 -26 35 -31 35 -8 0 -32 21
-116 101 -12 10 -24 19 -27 19 -3 0 -22 15 -41 33 -70 64 -85 77 -92 77 -4 0
-18 10 -30 23 -21 21 -42 38 -94 75 -13 9 -35 27 -49 40 -14 12 -28 22 -32 22
-4 0 -19 10 -33 23 -47 41 -82 67 -92 67 -5 1 -21 14 -35 30 -13 17 -30 30
-37 30 -6 0 -16 6 -20 14 -4 7 -19 19 -32 26 -26 13 -40 24 -72 53 -10 9 -23
17 -29 17 -5 0 -18 8 -28 18 -10 10 -32 24 -50 31 -18 7 -32 17 -32 21 0 4
-13 13 -30 20 -16 7 -30 16 -30 21 0 5 -6 9 -13 9 -7 0 -22 8 -33 18 -10 10
-34 24 -51 31 -18 7 -33 18 -33 23 0 5 -13 14 -30 19 -16 6 -30 15 -30 19 0 5
-16 14 -35 20 -19 6 -35 16 -35 21 0 6 -13 15 -30 20 -16 6 -30 15 -30 19 0 5
-16 14 -35 20 -19 6 -35 15 -35 20 0 4 -13 13 -30 19 -16 5 -30 14 -30 20 0 5
-16 15 -35 21 -19 6 -35 16 -35 21 0 5 -11 11 -25 15 -14 3 -25 10 -25 14 0 5
-16 14 -35 21 -19 7 -35 16 -35 20 0 4 -16 13 -35 20 -19 7 -35 16 -35 20 0 4
-9 11 -20 14 -11 3 -26 12 -33 18 -20 19 -55 37 -71 37 -8 0 -16 7 -20 15 -3
8 -14 15 -25 15 -11 0 -27 7 -35 15 -8 9 -29 21 -46 26 -16 6 -30 15 -30 19 0
5 -16 14 -35 20 -19 6 -35 16 -35 20 0 5 -18 14 -40 20 -22 6 -40 14 -40 19 0
4 -18 14 -40 21 -22 7 -40 16 -40 20 0 4 -19 13 -42 21 -24 7 -49 19 -57 27
-7 7 -26 16 -42 19 -16 3 -29 9 -29 14 0 4 -18 14 -40 20 -22 7 -40 16 -40 20
0 5 -18 13 -40 19 -22 6 -40 14 -40 18 0 4 -21 14 -47 22 -27 7 -54 20 -61 27
-7 7 -22 13 -33 13 -10 0 -19 4 -19 10 0 5 -18 14 -40 20 -22 6 -40 15 -40 19
0 5 -20 14 -45 21 -25 7 -45 16 -45 19 0 4 -22 14 -50 21 -27 7 -50 17 -50 21
0 3 -20 12 -45 19 -25 7 -45 16 -45 20 0 4 -16 11 -35 14 -19 4 -40 12 -47 19
-7 7 -34 19 -60 26 -27 8 -48 17 -48 21 0 4 -20 13 -45 19 -25 6 -45 15 -45
19 0 5 -22 14 -50 21 -27 7 -50 16 -50 21 0 4 -22 13 -50 20 -27 7 -50 15 -50
19 0 4 -22 13 -50 20 -27 7 -50 16 -50 21 0 4 -22 13 -50 20 -27 7 -50 15 -50
20 0 4 -27 13 -60 21 -33 7 -60 16 -60 20 0 4 -25 13 -55 20 -30 7 -55 16 -55
20 0 4 -18 10 -40 14 -22 4 -40 11 -40 15 0 5 -25 14 -55 21 -30 7 -55 15 -55
19 0 4 -27 13 -60 20 -33 7 -60 16 -60 20 0 4 -26 13 -57 20 -32 8 -61 17 -64
22 -3 4 -32 13 -65 20 -32 6 -62 15 -65 20 -3 5 -33 14 -67 20 -34 6 -62 15
-62 18 0 4 -31 13 -70 20 -38 7 -70 16 -70 20 0 4 -34 13 -75 21 -41 7 -75 16
-75 20 0 3 -34 12 -75 18 -41 7 -75 16 -75 20 0 5 -40 14 -90 21 -49 7 -90 16
-90 20 0 4 -43 13 -95 20 -52 7 -95 16 -95 20 0 4 -45 13 -100 20 -55 7 -100
16 -100 20 0 4 -46 13 -102 20 -57 7 -105 16 -108 20 -3 4 -61 13 -130 21 -69
7 -127 16 -130 20 -6 7 -257 29 -342 29 -31 0 -58 4 -60 9 -1 5 -106 12 -233
16 -126 4 -232 11 -235 15 -3 4 -146 13 -319 18 -177 6 -317 15 -320 20 -3 5
-70 16 -148 23 -79 7 -143 17 -143 21 0 4 -16 8 -36 8 -49 0 -178 21 -184 30
-7 9 -171 30 -243 30 -31 0 -57 4 -57 9 0 4 -106 14 -235 21 -129 7 -235 17
-235 22 0 4 -27 8 -60 8 -33 0 -60 -4 -60 -10 0 -5 -24 -10 -54 -10 -87 0 -95
-5 -186 -110 -29 -33 -30 -33 -16 -6 8 16 18 32 23 35 5 3 19 28 33 55 13 26
30 51 37 53 7 3 13 9 13 15 0 15 51 78 64 78 6 0 20 14 31 30 11 16 25 30 32
30 6 0 18 8 25 18 7 11 23 24 36 31 13 7 32 20 42 29 34 32 65 53 88 58 12 4
22 10 22 14 0 4 15 14 33 21 17 7 37 18 44 24 7 5 19 15 26 22 8 6 33 17 56
24 22 7 41 15 41 19 0 5 20 14 45 21 25 7 45 17 45 21 0 4 20 13 45 19 25 6
45 14 45 18 0 4 23 13 50 20 28 7 50 16 50 21 0 4 20 13 45 19 25 6 45 15 45
20 0 5 13 11 29 14 16 3 35 12 42 19 8 8 34 20 59 28 25 8 48 18 51 22 3 5 33
14 67 20 34 6 62 15 62 19 0 4 34 13 75 20 41 6 75 15 75 19 0 4 33 13 73 20
39 8 74 17 77 21 13 19 195 26 650 28 267 0 570 -4 675 -10z m-5225 -3599 c0
-6 36 -10 88 -10 147 0 552 -23 552 -32 0 -4 19 -8 43 -8 67 0 302 -23 307
-30 3 -4 62 -13 133 -20 70 -7 127 -16 127 -20 0 -3 50 -12 110 -20 61 -7 110
-16 110 -20 0 -4 47 -13 105 -20 58 -7 105 -16 105 -20 0 -4 45 -13 100 -20
55 -7 100 -16 100 -20 0 -4 43 -13 95 -21 52 -7 95 -16 95 -20 0 -4 25 -11 55
-14 30 -4 55 -11 55 -15 0 -4 38 -14 85 -21 47 -7 85 -15 85 -19 0 -4 34 -13
75 -20 41 -7 75 -16 75 -20 0 -4 34 -13 75 -20 41 -7 75 -16 75 -20 0 -4 29
-13 65 -20 36 -7 65 -16 65 -20 0 -4 27 -13 60 -20 33 -7 60 -16 60 -20 0 -4
27 -13 60 -19 33 -7 60 -16 60 -20 0 -5 27 -14 60 -21 33 -7 60 -16 60 -20 0
-5 23 -13 50 -20 28 -7 50 -15 50 -19 0 -4 25 -13 55 -20 30 -7 55 -16 55 -20
0 -4 25 -14 55 -21 30 -7 55 -16 55 -20 0 -4 20 -13 45 -19 25 -6 45 -15 45
-20 0 -5 16 -12 35 -15 19 -4 40 -12 47 -19 7 -7 34 -19 61 -26 26 -8 47 -17
47 -21 0 -4 20 -13 45 -19 25 -6 45 -16 45 -21 0 -6 9 -10 19 -10 11 0 26 -6
33 -13 7 -8 25 -17 40 -20 15 -4 33 -13 40 -20 7 -7 34 -20 61 -27 26 -8 47
-18 47 -22 0 -4 18 -12 40 -18 22 -6 40 -15 40 -20 0 -5 18 -15 40 -21 22 -7
40 -15 40 -19 0 -3 16 -12 35 -19 19 -7 35 -16 35 -20 0 -5 13 -11 29 -14 16
-3 35 -12 42 -19 8 -8 29 -20 47 -27 17 -7 32 -17 32 -21 0 -4 18 -13 40 -20
22 -7 40 -17 40 -21 0 -4 16 -13 35 -20 19 -7 35 -16 35 -20 0 -4 16 -13 35
-20 19 -7 35 -16 35 -20 0 -4 16 -13 35 -20 19 -7 35 -16 35 -20 0 -4 14 -12
30 -19 17 -7 30 -16 30 -21 0 -4 16 -13 35 -20 19 -7 35 -16 35 -20 0 -4 15
-13 33 -20 17 -7 41 -23 52 -34 11 -12 35 -27 53 -34 17 -8 32 -18 32 -23 0
-5 14 -14 30 -19 17 -6 30 -15 30 -19 0 -4 14 -13 30 -19 17 -5 30 -14 30 -20
0 -5 14 -14 30 -20 17 -5 30 -14 30 -20 0 -5 13 -14 29 -19 16 -6 39 -20 50
-31 12 -12 28 -21 36 -21 8 0 15 -5 15 -10 0 -6 12 -16 28 -23 15 -6 38 -23
52 -37 14 -14 37 -31 53 -37 15 -7 27 -17 27 -23 0 -5 6 -10 13 -10 6 0 25
-11 41 -25 16 -14 32 -25 36 -25 4 0 19 -10 33 -22 45 -40 82 -68 90 -68 4 0
21 -13 37 -30 16 -16 33 -30 37 -30 4 0 19 -12 32 -25 13 -14 27 -25 31 -25 8
0 51 -37 106 -90 12 -11 25 -20 30 -20 5 0 24 -16 41 -35 18 -19 37 -35 42
-35 5 0 16 -8 23 -18 7 -11 24 -25 38 -32 14 -7 31 -21 38 -32 7 -10 19 -18
25 -18 7 0 21 -14 32 -30 11 -16 24 -30 29 -30 5 0 21 -11 35 -25 28 -27 112
-103 133 -121 7 -6 20 -20 29 -30 9 -11 32 -33 51 -50 19 -17 45 -45 58 -62
13 -18 29 -32 36 -32 6 0 19 -10 27 -22 8 -13 34 -43 56 -68 23 -24 41 -48 41
-52 0 -4 6 -8 13 -8 6 0 32 -23 57 -52 61 -70 109 -123 148 -166 17 -19 32
-40 32 -46 0 -7 15 -28 33 -47 81 -89 107 -120 107 -127 0 -5 16 -25 35 -46
19 -21 35 -45 35 -53 0 -7 7 -16 15 -20 9 -3 25 -23 35 -44 11 -21 26 -42 32
-46 7 -4 24 -28 37 -53 13 -25 29 -50 35 -55 14 -13 33 -43 46 -72 5 -13 13
-23 17 -23 5 0 22 -30 38 -65 17 -36 33 -65 37 -65 3 0 19 -26 34 -57 16 -32
32 -60 36 -61 5 -2 20 -29 34 -60 14 -32 29 -59 34 -62 9 -6 50 -95 50 -109 0
-6 4 -11 9 -11 9 0 45 -78 56 -122 4 -16 11 -28 15 -28 4 0 20 -35 35 -77 16
-43 32 -80 37 -84 4 -3 18 -39 30 -80 12 -40 25 -76 28 -79 9 -7 36 -104 51
-180 7 -36 15 -67 19 -70 13 -10 41 -209 52 -375 11 -170 0 -420 -22 -520 -8
-33 -8 -29 -4 25 6 79 -13 294 -26 298 -6 2 -10 20 -10 39 0 41 -49 266 -59
273 -4 3 -18 44 -31 93 -12 48 -26 87 -30 87 -4 0 -20 38 -34 85 -15 47 -31
85 -35 85 -5 0 -12 12 -15 26 -8 30 -47 116 -56 124 -3 3 -17 28 -29 55 -13
28 -27 52 -30 55 -4 3 -21 32 -36 65 -16 33 -32 62 -35 65 -3 3 -14 21 -23 40
-21 42 -40 73 -48 80 -4 3 -18 29 -33 58 -14 28 -30 52 -35 52 -5 0 -12 8 -15
18 -10 26 -28 55 -53 82 -13 13 -23 29 -23 34 0 6 -10 22 -22 36 -13 14 -36
45 -53 70 -16 25 -38 54 -48 65 -10 11 -25 32 -33 47 -8 15 -32 45 -53 67 -22
22 -42 48 -45 59 -3 10 -23 36 -44 59 -20 22 -57 64 -82 93 -73 84 -161 179
-199 215 -6 6 -51 52 -100 103 -49 50 -93 92 -98 92 -4 0 -18 16 -31 35 -12
19 -28 35 -35 35 -6 0 -21 14 -32 30 -11 16 -25 30 -30 30 -6 0 -22 12 -36 28
-15 15 -47 45 -73 67 -25 22 -56 50 -68 63 -12 12 -25 22 -30 22 -4 0 -25 16
-45 35 -61 55 -70 63 -93 75 -22 12 -30 18 -90 73 -20 18 -48 38 -63 46 -15 8
-27 18 -27 23 0 5 -11 13 -25 18 -14 5 -25 14 -25 19 0 5 -10 13 -21 16 -12 4
-34 19 -48 34 -14 14 -39 32 -54 40 -15 8 -27 18 -27 23 0 5 -13 14 -30 19
-16 6 -30 15 -30 20 0 5 -11 14 -25 19 -14 5 -25 13 -25 18 0 5 -11 14 -25 20
-25 12 -39 22 -74 52 -9 9 -32 22 -51 30 -19 8 -42 21 -51 30 -35 30 -49 40
-74 52 -14 6 -25 14 -25 18 0 3 -16 12 -35 19 -19 7 -35 16 -35 20 0 5 -13 14
-30 21 -16 7 -30 15 -30 19 0 4 -16 13 -35 20 -19 7 -35 17 -35 22 0 5 -7 9
-14 9 -8 0 -27 11 -42 25 -15 14 -33 25 -40 25 -8 0 -14 4 -14 9 0 5 -16 15
-35 21 -19 6 -35 15 -35 20 0 5 -16 14 -35 20 -19 6 -35 15 -35 20 0 5 -16 14
-35 20 -19 6 -35 15 -35 20 0 5 -16 14 -35 20 -19 6 -35 15 -35 20 0 5 -16 14
-35 20 -19 6 -35 16 -35 20 0 5 -18 14 -40 20 -22 6 -40 14 -40 18 0 5 -16 14
-35 21 -19 7 -35 16 -35 20 0 4 -19 13 -42 20 -22 7 -48 19 -55 27 -8 8 -26
17 -41 21 -15 3 -33 13 -41 20 -7 8 -26 17 -42 20 -16 3 -29 9 -29 14 0 4 -18
13 -40 19 -22 6 -40 14 -40 18 0 4 -21 14 -47 22 -27 7 -54 19 -61 26 -7 7
-28 16 -47 20 -19 3 -35 10 -35 15 0 5 -20 14 -45 20 -25 6 -45 15 -45 19 0 5
-13 11 -30 15 -16 4 -30 10 -30 14 0 4 -25 14 -55 21 -30 7 -55 17 -55 21 0 4
-22 12 -50 19 -27 7 -50 15 -50 19 0 4 -25 14 -55 21 -30 7 -55 16 -55 20 0 4
-25 13 -55 20 -30 7 -55 17 -55 21 0 4 -25 13 -55 20 -30 7 -55 15 -55 19 0 4
-27 13 -60 21 -33 7 -60 16 -60 19 0 4 -29 13 -65 20 -36 7 -65 16 -65 20 0 4
-29 13 -65 20 -36 7 -65 17 -65 20 0 4 -31 13 -70 20 -38 7 -70 16 -70 20 0 4
-34 13 -75 19 -41 7 -75 16 -75 20 0 5 -40 14 -90 21 -49 7 -90 16 -90 20 0 4
-43 13 -95 21 -52 7 -95 16 -95 20 0 4 -45 12 -100 19 -55 7 -100 16 -100 20
0 4 -49 13 -110 20 -60 7 -110 16 -110 20 0 4 -35 11 -77 15 -43 4 -80 11 -83
15 -3 4 -59 14 -125 20 -66 7 -122 16 -125 20 -3 4 -75 13 -160 21 -85 7 -157
16 -160 20 -6 8 -313 29 -423 29 -46 0 -77 4 -79 11 -5 14 -1037 16 -1047 2
-3 -5 -116 -15 -251 -22 -135 -7 -246 -17 -248 -22 -2 -5 -25 -9 -50 -9 -75 0
-347 -23 -352 -30 -3 -4 -72 -12 -155 -19 -82 -7 -152 -17 -155 -21 -3 -4 -44
-11 -92 -15 -49 -4 -88 -10 -88 -14 0 -4 -51 -13 -112 -20 -62 -7 -115 -16
-118 -20 -3 -4 -53 -14 -112 -21 -60 -7 -108 -16 -108 -20 0 -4 -45 -13 -100
-20 -55 -7 -100 -16 -100 -20 0 -4 -43 -13 -95 -20 -52 -7 -95 -16 -95 -20 0
-4 -40 -13 -90 -20 -49 -7 -90 -16 -90 -20 0 -4 -38 -13 -85 -20 -47 -7 -85
-16 -85 -20 0 -4 -38 -13 -85 -20 -47 -7 -85 -17 -85 -21 0 -4 -34 -13 -75
-20 -41 -6 -75 -15 -75 -19 0 -4 -31 -13 -70 -20 -38 -7 -70 -16 -70 -20 0 -4
-31 -12 -70 -19 -38 -7 -70 -16 -70 -20 0 -4 -28 -13 -62 -19 -34 -6 -64 -15
-67 -20 -3 -5 -34 -15 -68 -22 -35 -8 -63 -17 -63 -21 0 -3 -27 -12 -60 -19
-33 -7 -60 -16 -60 -20 0 -3 -29 -13 -65 -20 -36 -7 -65 -17 -65 -21 0 -5 -16
-11 -35 -15 -19 -3 -35 -10 -35 -15 0 -4 -27 -13 -60 -20 -33 -6 -60 -15 -60
-19 0 -5 -22 -13 -50 -20 -27 -7 -50 -15 -50 -19 0 -4 -25 -14 -55 -21 -30 -7
-55 -17 -55 -21 0 -4 -22 -12 -50 -19 -27 -7 -50 -15 -50 -19 0 -4 -25 -14
-55 -21 -30 -7 -55 -17 -55 -21 0 -4 -22 -12 -50 -19 -27 -7 -50 -15 -50 -19
0 -4 -22 -13 -50 -20 -27 -7 -50 -16 -50 -21 0 -4 -22 -13 -50 -20 -27 -7 -50
-16 -50 -20 0 -5 -22 -14 -50 -21 -27 -7 -50 -16 -50 -21 0 -4 -20 -13 -45
-19 -25 -6 -45 -15 -45 -19 0 -4 -18 -12 -40 -19 -22 -6 -40 -15 -40 -20 0 -4
-22 -14 -50 -21 -27 -7 -50 -17 -50 -21 0 -5 -18 -13 -40 -19 -22 -6 -40 -14
-40 -18 0 -4 -20 -14 -45 -21 -25 -7 -45 -17 -45 -22 0 -5 -6 -9 -14 -9 -8 0
-21 -6 -28 -13 -7 -8 -25 -17 -40 -20 -15 -4 -33 -13 -40 -20 -7 -7 -32 -19
-55 -26 -24 -8 -43 -17 -43 -21 0 -4 -18 -13 -40 -20 -22 -7 -40 -17 -40 -21
0 -5 -18 -13 -40 -19 -22 -6 -40 -15 -40 -20 0 -4 -16 -14 -35 -20 -19 -6 -35
-15 -35 -20 0 -4 -13 -10 -29 -13 -16 -3 -35 -13 -44 -21 -8 -8 -33 -21 -56
-28 -23 -7 -41 -16 -41 -19 0 -4 -15 -13 -32 -20 -18 -7 -39 -19 -47 -27 -7
-7 -26 -16 -42 -19 -16 -3 -29 -9 -29 -14 0 -4 -16 -13 -35 -20 -19 -7 -35
-16 -35 -20 0 -4 -16 -13 -35 -19 -19 -6 -35 -16 -35 -20 0 -5 -18 -15 -40
-21 -22 -7 -40 -16 -40 -20 0 -4 -16 -13 -35 -19 -19 -6 -35 -16 -35 -21 0 -5
-6 -9 -13 -9 -8 0 -24 -9 -37 -20 -13 -11 -28 -20 -35 -20 -7 0 -22 -9 -35
-20 -13 -11 -28 -20 -35 -20 -7 0 -24 -11 -39 -25 -15 -14 -34 -25 -42 -25 -7
0 -14 -4 -14 -9 0 -5 -16 -15 -35 -21 -19 -6 -35 -15 -35 -20 0 -5 -16 -14
-35 -20 -19 -6 -35 -15 -35 -20 0 -4 -13 -13 -30 -19 -16 -5 -30 -14 -30 -20
0 -5 -16 -15 -35 -21 -19 -6 -35 -15 -35 -20 0 -4 -13 -13 -30 -19 -16 -5 -30
-14 -30 -19 0 -5 -15 -16 -32 -23 -18 -7 -42 -21 -52 -31 -11 -10 -26 -18 -33
-18 -7 0 -13 -4 -13 -9 0 -5 -13 -14 -30 -21 -16 -7 -30 -16 -30 -20 0 -4 -15
-14 -32 -21 -18 -7 -38 -18 -44 -24 -28 -25 -51 -41 -76 -52 -16 -7 -28 -17
-28 -23 0 -5 -6 -10 -13 -10 -8 0 -24 -9 -37 -20 -13 -11 -26 -20 -30 -20 -4
0 -20 -11 -36 -25 -16 -14 -35 -25 -41 -25 -7 0 -13 -4 -13 -9 0 -5 -14 -14
-30 -21 -17 -7 -30 -16 -30 -21 0 -4 -8 -10 -19 -14 -10 -3 -28 -13 -39 -23
-45 -38 -58 -48 -85 -61 -15 -8 -27 -18 -27 -23 0 -5 -13 -14 -29 -19 -16 -6
-32 -17 -35 -25 -3 -8 -11 -14 -18 -14 -7 0 -24 -12 -37 -25 -13 -14 -29 -25
-37 -25 -8 0 -14 -5 -14 -10 0 -6 -12 -16 -27 -23 -16 -6 -40 -24 -55 -39 -15
-16 -32 -28 -37 -28 -5 0 -19 -11 -32 -25 -13 -13 -28 -25 -33 -25 -8 0 -22
-12 -87 -72 -16 -15 -38 -32 -50 -38 -22 -12 -31 -20 -92 -75 -20 -19 -41 -35
-46 -35 -5 0 -19 -11 -32 -25 -13 -13 -28 -25 -33 -25 -5 0 -18 -9 -30 -20
-80 -78 -106 -100 -115 -100 -6 0 -15 -9 -21 -20 -6 -11 -15 -20 -20 -20 -6 0
-36 -26 -69 -57 -33 -32 -83 -78 -111 -103 -66 -57 -90 -82 -90 -92 0 -4 -7
-8 -15 -8 -8 0 -22 -11 -31 -25 -9 -14 -20 -25 -25 -25 -8 0 -40 -29 -199
-181 -38 -37 -73 -69 -77 -70 -5 -2 -22 -21 -37 -41 -16 -21 -35 -38 -42 -38
-8 0 -14 -4 -14 -8 0 -8 -20 -30 -86 -90 -16 -16 -40 -43 -53 -60 -12 -18 -29
-32 -37 -32 -8 0 -14 -4 -14 -10 0 -5 -17 -27 -37 -49 -37 -37 -60 -64 -153
-171 -25 -29 -60 -68 -77 -88 -18 -19 -33 -41 -33 -49 0 -7 -6 -16 -14 -19 -8
-3 -27 -24 -43 -47 -15 -23 -30 -44 -34 -47 -3 -3 -18 -23 -34 -45 -17 -22
-34 -43 -38 -46 -11 -8 -34 -47 -43 -71 -3 -10 -10 -18 -15 -18 -5 0 -21 -24
-35 -52 -15 -29 -30 -55 -34 -58 -9 -6 -50 -95 -50 -109 0 -5 -6 -14 -13 -18
-12 -7 -67 -121 -67 -137 0 -4 -6 -14 -14 -22 -8 -8 -22 -39 -31 -69 -8 -30
-19 -55 -23 -55 -10 0 -62 -167 -62 -198 0 -12 -4 -22 -8 -22 -5 0 -14 -30
-21 -67 -7 -38 -17 -90 -22 -116 -15 -76 -11 -186 11 -288 10 -51 17 -95 15
-97 -5 -5 -21 55 -37 133 -7 33 -16 63 -21 66 -4 3 -13 63 -20 133 -13 143 5
638 23 644 5 2 10 16 10 30 0 44 50 326 59 332 4 3 20 66 35 140 16 74 31 137
36 140 4 3 17 47 30 98 12 50 26 92 30 92 4 0 19 38 35 85 15 46 30 85 34 87
3 2 19 41 35 88 16 46 35 90 42 97 7 7 20 34 30 60 9 27 22 53 28 58 6 6 22
34 35 63 14 28 27 52 31 52 3 0 19 29 35 65 17 36 33 65 37 65 3 0 18 25 32
55 13 30 34 64 45 77 12 12 21 27 21 34 0 7 8 19 18 26 17 13 32 36 60 91 7
15 17 27 21 27 5 0 21 19 37 42 33 49 60 82 91 115 13 13 30 37 38 53 8 16 21
33 28 37 7 4 26 26 43 47 16 22 38 49 49 61 20 22 120 134 185 208 19 22 41
45 48 51 28 23 48 45 92 94 24 29 50 52 57 52 7 0 13 4 13 10 0 10 218 229
294 295 26 22 56 50 68 63 12 12 25 22 30 22 7 0 52 39 104 89 12 12 25 21 30
21 5 0 20 12 33 25 13 14 27 25 32 25 5 0 24 16 42 35 17 19 37 35 44 35 7 0
16 6 20 14 4 7 18 19 31 25 24 13 29 17 96 76 21 19 42 35 46 35 4 0 20 11 36
25 16 14 32 25 36 25 5 0 17 9 28 20 11 11 27 20 35 20 8 0 15 5 15 10 0 6 12
16 27 23 15 6 35 19 45 27 27 24 41 34 70 49 16 8 28 18 28 23 0 4 6 8 13 8 7
0 22 8 33 18 10 9 31 23 47 29 15 7 27 17 27 22 0 5 16 15 35 21 19 6 35 16
35 21 0 6 14 15 30 20 17 6 30 15 30 19 0 4 14 13 30 19 17 5 30 14 30 20 0 5
16 15 35 21 19 6 35 15 35 20 0 4 14 13 30 19 17 5 30 15 30 20 0 6 11 13 25
17 14 3 25 10 25 14 0 5 16 14 35 21 19 7 35 16 35 20 0 4 16 13 35 20 19 7
35 16 35 20 0 4 16 13 35 20 19 7 35 16 35 20 0 4 16 13 35 20 19 7 35 16 35
20 0 4 16 13 35 20 19 7 35 16 35 20 0 4 16 13 35 20 19 7 35 16 35 20 0 4 16
13 35 20 19 7 35 16 35 20 0 4 16 13 35 19 19 6 35 16 35 20 0 5 18 15 40 21
22 7 40 16 40 20 0 4 16 13 35 19 19 6 35 15 35 19 0 4 18 14 40 21 22 7 40
16 40 20 0 3 16 12 35 19 19 7 35 16 35 20 0 4 19 13 42 20 22 7 48 19 55 27
8 8 22 14 32 14 10 0 28 9 41 20 13 11 29 20 37 20 7 0 13 4 13 9 0 5 20 15
45 22 25 7 45 17 45 21 0 4 18 13 40 19 22 7 40 15 40 19 0 4 18 13 40 20 22
7 40 16 40 20 0 4 20 13 45 20 25 7 45 16 45 20 0 4 20 13 45 20 25 7 45 16
45 21 0 4 18 13 40 19 22 6 40 14 40 19 0 4 23 14 50 21 28 7 50 17 50 22 0 4
20 13 45 19 25 6 45 15 45 20 0 4 18 13 40 19 22 6 40 14 40 19 0 4 25 14 55
21 30 7 55 16 55 20 0 4 20 13 45 19 25 6 45 15 45 20 0 4 25 14 55 21 30 7
55 17 55 21 0 4 23 12 50 19 28 7 50 15 50 19 0 4 25 14 55 21 30 7 55 16 55
20 0 4 16 11 35 14 19 4 35 11 35 15 0 5 27 14 60 22 33 7 60 16 60 20 0 4 23
12 50 19 28 7 50 15 50 19 0 4 27 13 60 19 33 7 60 16 60 21 0 4 29 14 65 21
36 7 65 17 65 20 0 4 27 13 60 20 33 7 60 16 60 20 0 4 29 14 65 21 36 7 65
16 65 20 0 4 29 12 65 19 36 7 65 16 65 20 0 5 32 14 70 21 39 7 70 16 70 20
0 4 32 13 70 20 39 7 70 15 70 19 0 4 32 13 70 20 39 7 70 16 70 20 0 3 36 13
80 20 44 7 80 17 80 21 0 4 38 13 85 20 47 7 85 15 85 19 0 4 38 12 85 19 47
7 85 16 85 20 0 4 45 14 100 21 55 7 100 17 100 21 0 4 29 11 65 14 36 4 65
11 65 15 0 4 47 13 105 20 58 7 105 16 105 20 0 4 52 13 115 20 63 7 115 17
115 21 0 4 54 13 120 20 66 7 120 16 120 19 0 4 61 13 135 20 74 7 135 16 135
20 0 4 73 13 163 20 89 7 164 16 167 20 3 4 100 13 215 21 116 7 212 16 215
19 6 8 454 30 598 30 55 0 92 4 92 10 0 6 122 10 345 10 223 0 345 -4 345 -10z
m14320 -4440 c0 -6 26 -10 58 -10 93 0 392 -23 392 -30 0 -4 61 -13 135 -20
74 -7 135 -16 135 -20 0 -4 45 -13 100 -20 55 -7 100 -15 100 -19 0 -4 43 -13
95 -20 52 -8 95 -17 95 -20 0 -4 36 -14 80 -21 44 -7 80 -17 80 -20 0 -4 34
-13 75 -19 41 -7 75 -16 75 -20 0 -5 34 -14 75 -21 41 -7 75 -16 75 -21 0 -4
32 -13 70 -20 39 -7 70 -16 70 -20 0 -4 25 -13 55 -19 30 -6 55 -15 55 -19 0
-5 27 -14 60 -22 33 -7 60 -16 60 -19 0 -3 23 -12 50 -19 28 -7 50 -16 50 -21
0 -4 21 -13 46 -19 26 -7 53 -18 61 -26 8 -8 23 -15 34 -15 10 0 19 -4 19 -9
0 -4 20 -14 45 -21 25 -7 45 -16 45 -20 0 -4 20 -13 45 -20 25 -7 45 -16 45
-20 0 -4 20 -14 45 -21 25 -7 45 -17 45 -21 0 -4 18 -12 40 -18 22 -6 40 -14
40 -19 0 -4 18 -13 40 -20 22 -6 40 -16 40 -20 0 -5 20 -15 45 -22 25 -7 45
-17 45 -21 0 -3 16 -12 35 -19 19 -7 35 -16 35 -19 0 -4 18 -12 40 -19 22 -6
40 -16 40 -21 0 -4 16 -14 35 -20 19 -6 35 -15 35 -19 0 -4 18 -14 40 -21 22
-7 40 -16 40 -20 0 -3 16 -12 35 -19 19 -7 35 -17 35 -22 0 -5 6 -9 13 -9 7 0
23 -9 35 -21 12 -11 36 -25 52 -31 17 -5 30 -14 30 -19 0 -5 7 -9 14 -9 8 0
27 -11 42 -25 15 -14 33 -25 40 -25 8 0 14 -4 14 -8 0 -5 12 -15 28 -23 29
-15 43 -25 70 -49 10 -8 30 -21 45 -27 15 -7 27 -17 27 -23 0 -5 7 -10 15 -10
8 0 23 -8 33 -17 9 -10 30 -24 45 -30 15 -7 27 -17 27 -22 0 -5 14 -14 30 -21
17 -7 30 -16 30 -21 0 -5 12 -15 27 -22 30 -13 38 -19 96 -72 21 -19 42 -35
47 -35 4 0 18 -11 31 -25 13 -13 28 -25 33 -25 5 0 18 -9 30 -20 50 -48 98
-90 104 -90 3 0 23 -17 44 -37 22 -21 49 -48 62 -60 13 -13 28 -23 33 -23 6 0
18 -11 27 -25 9 -14 20 -25 25 -25 5 0 43 -33 85 -72 42 -40 107 -101 144
-135 37 -35 81 -76 98 -91 17 -16 43 -45 59 -66 15 -20 34 -36 41 -36 8 0 14
-4 14 -9 0 -4 15 -24 33 -44 36 -39 80 -90 147 -167 25 -29 60 -68 78 -88 17
-19 32 -39 32 -45 0 -5 10 -20 23 -32 47 -47 87 -95 87 -104 0 -5 13 -23 29
-40 16 -17 39 -48 51 -69 12 -20 28 -41 36 -45 8 -4 14 -12 14 -18 0 -11 34
-61 68 -99 12 -13 22 -30 22 -36 0 -5 8 -19 18 -30 10 -10 31 -44 47 -74 17
-30 34 -58 38 -61 10 -8 34 -47 43 -71 3 -10 10 -18 15 -18 9 0 49 -81 49 -99
0 -5 6 -14 13 -18 12 -8 19 -21 53 -98 10 -22 24 -46 30 -52 7 -7 20 -34 30
-60 9 -27 22 -52 29 -58 6 -5 20 -32 30 -60 10 -27 23 -54 30 -60 6 -5 24 -44
40 -85 15 -41 31 -77 35 -80 4 -3 20 -39 34 -80 15 -41 31 -77 35 -80 4 -3 17
-36 30 -75 12 -38 26 -72 30 -75 8 -6 61 -169 61 -187 0 -7 4 -13 8 -13 8 0
27 -58 52 -157 6 -24 14 -43 18 -43 5 0 21 -54 37 -120 16 -66 32 -120 37
-120 4 0 8 -8 8 -17 0 -27 43 -207 51 -213 4 -3 19 -72 35 -155 15 -82 30
-152 33 -155 9 -7 26 -111 48 -290 9 -80 20 -147 24 -150 3 -3 14 -88 24 -190
23 -240 32 -937 16 -1290 -13 -304 -32 -560 -41 -560 -4 0 -10 -33 -14 -72
-10 -114 -49 -382 -56 -388 -4 -3 -19 -81 -35 -175 -16 -93 -31 -172 -35 -175
-4 -3 -17 -59 -29 -125 -12 -66 -26 -122 -30 -125 -4 -3 -20 -70 -35 -150 -16
-80 -31 -147 -35 -150 -4 -3 -20 -61 -35 -130 -16 -69 -32 -127 -36 -130 -4
-3 -20 -57 -35 -120 -15 -63 -31 -117 -35 -120 -4 -3 -10 -16 -13 -30 -19 -83
-41 -150 -48 -150 -5 0 -9 -5 -9 -12 0 -22 -53 -183 -62 -186 -4 -2 -8 -9 -8
-15 0 -18 -52 -182 -60 -187 -4 -3 -17 -36 -29 -75 -13 -38 -26 -72 -30 -75
-4 -3 -18 -38 -32 -79 -13 -41 -28 -79 -34 -85 -5 -6 -23 -50 -40 -98 -16 -49
-32 -88 -36 -88 -4 0 -17 -29 -29 -65 -12 -36 -28 -72 -36 -79 -7 -8 -23 -40
-35 -73 -12 -32 -25 -60 -28 -63 -8 -6 -61 -124 -61 -134 0 -4 -7 -14 -15 -22
-8 -8 -24 -41 -36 -74 -12 -33 -25 -60 -29 -60 -4 0 -13 -15 -20 -32 -22 -56
-44 -103 -50 -108 -8 -7 -50 -98 -50 -109 0 -5 -7 -11 -15 -15 -8 -3 -15 -10
-15 -16 0 -15 -41 -104 -50 -110 -10 -6 -60 -115 -60 -129 0 -6 -5 -11 -10
-11 -6 0 -20 -22 -32 -50 -12 -27 -25 -50 -28 -50 -4 0 -19 -29 -35 -65 -15
-36 -31 -65 -35 -65 -4 0 -20 -29 -36 -65 -16 -36 -32 -65 -36 -65 -3 0 -19
-26 -34 -57 -16 -32 -32 -61 -36 -64 -5 -3 -18 -23 -30 -45 -11 -21 -24 -41
-28 -44 -4 -3 -19 -28 -33 -57 -15 -28 -30 -53 -34 -55 -4 -1 -21 -27 -36 -57
-16 -29 -37 -63 -48 -74 -10 -11 -19 -26 -19 -33 0 -7 -8 -19 -17 -26 -10 -7
-29 -33 -42 -58 -13 -25 -29 -50 -35 -55 -12 -12 -27 -34 -52 -80 -9 -16 -23
-34 -30 -38 -8 -4 -14 -12 -14 -18 0 -11 -34 -61 -67 -99 -13 -13 -23 -31 -23
-38 0 -7 -6 -15 -14 -18 -7 -3 -26 -27 -40 -55 -15 -27 -31 -49 -36 -49 -5 0
-19 -18 -30 -39 -11 -22 -26 -44 -34 -48 -7 -4 -20 -22 -29 -39 -9 -17 -27
-42 -41 -55 -14 -13 -26 -29 -26 -34 0 -6 -18 -29 -40 -53 -22 -23 -40 -46
-40 -52 0 -5 -12 -22 -27 -38 -53 -56 -87 -97 -100 -120 -12 -23 -26 -39 -98
-117 -20 -22 -43 -52 -51 -67 -8 -15 -24 -38 -37 -51 -24 -26 -131 -146 -187
-210 -19 -22 -64 -71 -100 -108 -36 -37 -101 -107 -145 -154 -44 -47 -89 -94
-99 -103 -45 -41 -106 -106 -106 -113 0 -5 -6 -9 -14 -9 -8 0 -27 -18 -43 -40
-15 -22 -32 -40 -36 -40 -4 0 -37 -28 -72 -62 -35 -35 -111 -108 -169 -163
-58 -55 -133 -126 -166 -157 -33 -32 -63 -58 -66 -58 -4 0 -17 -10 -29 -22
-12 -13 -43 -41 -69 -63 -27 -22 -57 -50 -69 -62 -11 -13 -24 -23 -28 -23 -7
0 -26 -17 -110 -96 -14 -13 -29 -24 -32 -24 -6 0 -22 -15 -98 -86 -14 -13 -29
-24 -33 -24 -4 0 -20 -14 -36 -30 -16 -17 -34 -30 -40 -30 -5 0 -15 -9 -22
-20 -7 -11 -18 -20 -24 -20 -7 0 -22 -11 -35 -25 -13 -13 -28 -25 -34 -25 -5
0 -21 -12 -34 -25 -13 -14 -27 -25 -32 -25 -5 0 -23 -14 -39 -30 -16 -17 -34
-30 -39 -30 -5 0 -19 -11 -32 -25 -13 -13 -28 -25 -34 -25 -5 0 -21 -12 -34
-25 -13 -14 -29 -25 -37 -25 -8 0 -14 -5 -14 -10 0 -6 -12 -16 -27 -23 -16 -6
-39 -23 -53 -37 -14 -14 -38 -31 -53 -39 -15 -8 -27 -18 -27 -23 0 -4 -6 -8
-12 -8 -7 0 -24 -12 -37 -25 -13 -14 -27 -25 -33 -25 -5 0 -15 -6 -23 -13 -25
-24 -50 -42 -78 -56 -15 -8 -27 -18 -27 -21 0 -4 -13 -13 -30 -20 -16 -7 -30
-17 -30 -22 0 -5 -13 -14 -29 -19 -16 -6 -32 -17 -35 -25 -3 -8 -12 -14 -19
-14 -8 0 -27 -11 -43 -25 -16 -14 -35 -25 -41 -25 -7 0 -13 -4 -13 -9 0 -5
-13 -14 -30 -20 -16 -5 -30 -14 -30 -19 0 -5 -14 -16 -32 -23 -18 -7 -40 -21
-50 -31 -10 -10 -25 -18 -33 -18 -8 0 -15 -4 -15 -9 0 -5 -16 -15 -35 -22 -19
-7 -35 -16 -35 -20 0 -4 -13 -12 -30 -19 -16 -7 -30 -16 -30 -20 0 -4 -18 -13
-40 -20 -22 -7 -40 -17 -40 -21 0 -4 -16 -13 -35 -20 -19 -7 -35 -16 -35 -20
0 -4 -12 -10 -26 -13 -15 -4 -33 -14 -41 -22 -9 -8 -28 -18 -44 -21 -16 -3
-29 -9 -29 -14 0 -4 -18 -14 -40 -20 -22 -7 -40 -15 -40 -19 0 -4 -18 -13 -40
-20 -22 -7 -40 -16 -40 -20 0 -5 -20 -14 -45 -21 -25 -7 -45 -17 -45 -21 0 -4
-18 -13 -40 -19 -22 -7 -40 -16 -40 -20 0 -5 -18 -13 -40 -19 -22 -6 -40 -14
-40 -18 0 -4 -20 -14 -45 -21 -25 -7 -45 -17 -45 -21 0 -5 -22 -14 -50 -21
-27 -7 -50 -16 -50 -20 0 -4 -22 -12 -50 -19 -27 -7 -50 -15 -50 -20 0 -4 -34
-13 -75 -20 -41 -7 -75 -16 -75 -20 0 -4 -30 -13 -67 -20 -38 -7 -71 -17 -74
-22 -3 -5 -33 -14 -67 -20 -34 -6 -62 -15 -62 -19 0 -4 -31 -13 -70 -20 -38
-7 -70 -16 -70 -20 0 -5 -18 -12 -40 -15 -22 -4 -40 -10 -40 -13 0 -4 -29 -13
-65 -20 -36 -7 -65 -17 -65 -21 0 -5 -31 -14 -70 -21 -38 -7 -70 -15 -70 -19
0 -3 -29 -13 -65 -20 -36 -7 -65 -17 -65 -21 0 -4 -31 -13 -70 -20 -38 -7 -70
-15 -70 -19 0 -3 -34 -12 -75 -19 -41 -8 -75 -17 -75 -21 0 -3 -37 -12 -82
-20 -46 -7 -85 -17 -88 -21 -3 -5 -41 -14 -83 -21 -42 -6 -77 -15 -77 -18 0
-4 -40 -13 -90 -20 -49 -7 -90 -16 -90 -20 0 -4 -38 -13 -85 -20 -47 -7 -85
-16 -85 -20 0 -4 -45 -13 -100 -20 -55 -7 -100 -17 -100 -21 0 -4 -54 -13
-120 -19 -66 -7 -120 -16 -120 -20 0 -4 -74 -13 -165 -21 -91 -7 -165 -16
-165 -19 0 -4 -76 -13 -170 -20 -93 -8 -170 -17 -170 -20 0 -4 -81 -13 -180
-21 -99 -7 -180 -16 -180 -20 0 -4 -58 -10 -130 -14 -71 -4 -130 -11 -130 -15
0 -6 -455 -30 -582 -30 -36 0 -68 -4 -70 -9 -1 -4 -193 -14 -425 -22 -233 -7
-423 -16 -423 -19 0 -4 -210 -12 -467 -20 -258 -7 -469 -16 -471 -21 -5 -11
-292 -12 -292 -1 0 5 110 15 245 22 135 7 245 16 245 20 0 4 95 13 210 20 116
7 210 16 210 20 0 4 81 13 180 20 99 7 180 16 180 20 0 4 54 11 120 15 66 4
120 11 120 15 0 4 72 13 160 20 88 7 160 16 160 20 0 4 63 13 140 20 77 8 140
16 140 20 0 3 54 12 120 19 66 7 120 16 120 20 0 4 51 13 113 20 61 7 114 16
117 21 3 4 42 13 88 20 45 8 82 17 82 20 0 4 41 13 90 20 50 7 90 16 90 20 0
4 41 13 90 20 50 7 90 16 90 21 0 4 34 13 75 20 41 6 75 15 75 19 0 4 34 13
75 20 41 7 75 16 75 20 0 4 32 12 70 19 39 7 70 16 70 21 0 4 29 14 65 21 36
7 65 16 65 19 0 4 27 13 60 20 33 7 60 16 60 20 0 5 23 13 50 20 28 7 50 15
50 19 0 4 25 13 55 20 30 7 55 16 55 20 0 5 18 11 40 15 22 3 40 10 40 15 0 4
25 14 55 21 30 7 55 16 55 20 0 4 20 13 45 20 25 7 45 16 45 20 0 4 25 13 55
20 30 7 55 17 55 21 0 5 20 14 45 20 25 6 45 15 45 18 0 4 23 14 50 21 28 7
50 17 50 21 0 4 20 13 45 20 25 7 45 17 45 21 0 4 18 12 40 18 22 6 40 14 40
19 0 4 23 14 50 21 28 7 50 17 50 21 0 5 18 13 40 19 22 6 40 15 40 19 0 5 20
14 45 21 25 7 45 16 45 20 0 4 18 13 40 20 22 7 40 16 40 20 0 4 20 13 45 20
25 7 45 16 45 20 0 4 20 13 45 20 25 7 45 16 45 21 0 5 11 11 25 15 14 3 25
10 25 14 0 4 20 13 45 20 25 7 45 16 45 20 0 4 18 13 40 20 22 7 40 16 40 20
0 5 20 14 45 21 25 7 45 17 45 21 0 3 16 12 35 19 19 7 35 16 35 20 0 4 16 13
35 20 19 7 35 16 35 19 0 4 18 12 40 19 22 6 40 16 40 21 0 4 15 14 34 20 19
6 37 17 40 25 3 8 14 15 23 15 10 0 26 9 36 20 9 11 23 20 30 20 8 0 27 11 43
25 16 14 35 25 42 25 6 0 12 4 12 8 0 5 12 15 28 23 15 8 36 22 46 31 11 10
26 18 33 18 7 0 13 4 13 9 0 5 16 15 35 22 19 7 35 16 35 20 0 4 15 13 33 20
30 12 40 19 70 44 7 6 27 17 45 24 17 7 32 16 32 20 0 4 16 13 35 20 19 7 35
16 35 20 0 5 14 14 30 21 17 7 30 15 30 19 0 4 16 13 35 20 19 7 35 17 35 22
0 5 7 9 15 9 8 0 23 8 33 18 10 10 32 24 50 31 18 7 32 17 32 22 0 5 6 9 13 9
7 0 23 9 35 20 12 11 26 20 31 20 6 0 22 11 37 25 15 14 32 25 38 25 6 0 19 9
29 20 9 11 23 20 30 20 8 0 26 11 41 25 15 14 34 25 42 25 7 0 14 4 14 9 0 5
16 15 35 21 19 6 35 16 35 21 0 5 12 15 28 22 15 6 36 20 46 29 11 10 24 18
28 18 5 0 14 5 21 10 47 39 62 50 78 55 11 4 19 11 19 16 0 6 13 15 29 20 16
6 32 17 35 25 3 8 12 14 19 14 8 0 27 11 43 25 41 36 47 41 74 55 14 7 30 18
36 24 24 23 50 41 77 55 15 8 27 18 27 23 0 5 11 13 25 18 14 5 25 14 25 19 0
5 14 14 30 20 17 5 30 14 30 19 0 5 12 15 27 23 15 8 40 26 55 41 15 16 32 28
37 28 5 0 19 11 32 25 13 13 29 25 34 25 6 0 18 8 27 18 16 17 40 37 87 70 13
9 32 25 42 34 10 9 28 22 41 29 13 7 29 20 36 31 7 10 17 18 22 18 5 0 25 15
45 33 19 17 47 41 61 52 15 11 45 37 66 58 22 20 43 37 46 37 10 0 65 46 129
108 30 28 58 52 62 52 4 0 17 10 28 23 12 12 58 56 103 97 46 41 94 87 109
103 14 15 30 27 36 27 5 0 19 14 30 30 11 16 23 30 27 30 4 0 64 56 134 125
70 69 130 125 134 125 4 0 20 18 35 40 15 22 33 40 40 40 7 0 21 12 31 28 10
15 52 61 93 102 42 41 89 92 105 113 16 20 35 37 42 37 8 0 14 4 14 8 0 4 17
26 38 49 55 61 102 113 152 172 25 30 55 63 68 74 12 11 22 26 22 33 0 12 32
51 102 126 16 16 36 41 45 56 21 31 47 63 86 105 15 17 27 34 27 38 0 5 18 28
40 51 22 24 40 48 40 54 0 7 11 22 25 35 14 13 35 41 46 62 11 20 23 37 28 37
5 0 16 15 25 34 9 19 27 44 41 57 13 13 25 29 25 34 0 6 10 22 23 35 33 38 67
88 67 99 0 6 6 14 14 18 15 8 52 66 62 96 4 9 10 17 15 17 5 0 18 18 29 39 11
22 26 44 33 48 7 4 21 25 30 45 10 20 23 43 30 50 18 20 35 48 54 91 10 20 21
37 25 37 4 0 20 24 34 53 15 28 30 54 34 57 4 3 17 24 28 47 12 22 25 43 29
45 5 1 21 31 37 66 16 34 33 62 36 62 4 0 19 27 34 59 14 33 30 61 34 63 4 2
21 32 37 68 17 36 36 69 43 73 6 4 12 13 12 18 0 14 32 82 41 89 4 3 20 32 35
65 15 33 31 62 34 65 7 6 33 61 49 103 6 15 15 27 21 27 5 0 10 6 10 13 1 6 9
30 20 52 11 22 19 45 20 52 0 6 6 18 13 25 14 14 40 69 52 106 3 12 10 22 15
22 4 0 21 33 36 73 15 39 33 77 39 82 7 6 23 40 36 78 13 37 27 67 31 67 3 0
16 29 28 65 12 36 25 65 29 65 4 0 20 39 36 88 17 48 35 92 40 98 6 6 21 44
34 85 14 41 27 76 31 79 4 3 20 46 35 95 16 50 32 91 37 93 4 2 8 9 8 15 0 19
43 152 51 157 4 3 20 52 35 110 15 58 32 108 37 111 9 6 41 127 52 197 4 23
10 42 14 42 4 0 18 46 31 103 13 56 26 104 30 107 4 3 10 27 14 54 8 52 9 52
-43 6 -9 -9 -32 -22 -51 -30 -19 -8 -38 -18 -41 -23 -3 -4 -34 -13 -67 -20
-34 -6 -62 -15 -62 -19 0 -5 -36 -8 -80 -8 -44 0 -80 4 -80 8 0 5 -29 14 -65
21 -36 7 -65 16 -65 20 0 4 -17 13 -37 20 -21 8 -43 20 -51 27 -7 8 -22 14
-33 14 -11 0 -22 6 -25 14 -3 8 -18 19 -34 25 -29 10 -41 19 -109 84 -22 20
-44 37 -49 37 -5 0 -16 10 -25 23 -8 12 -25 34 -38 48 -50 54 -74 84 -80 98
-3 9 -11 2 -22 -22 -10 -19 -21 -37 -25 -39 -4 -2 -20 -29 -35 -60 -15 -31
-32 -58 -36 -60 -5 -2 -20 -27 -35 -55 -14 -29 -31 -53 -36 -53 -5 0 -17 -16
-26 -35 -9 -20 -25 -40 -35 -46 -11 -5 -19 -16 -19 -23 0 -7 -18 -33 -40 -57
-22 -24 -40 -48 -40 -54 0 -13 -94 -115 -106 -115 -5 0 -18 -13 -27 -30 -10
-16 -23 -30 -28 -30 -6 0 -28 -17 -49 -38 -81 -78 -97 -92 -106 -92 -5 0 -18
-14 -29 -30 -11 -16 -25 -30 -30 -30 -6 0 -25 -12 -42 -27 -48 -42 -78 -66
-103 -83 -13 -8 -31 -22 -40 -30 -9 -9 -31 -22 -50 -30 -19 -8 -42 -21 -51
-30 -32 -28 -44 -36 -76 -49 -18 -7 -33 -17 -33 -21 0 -4 -18 -13 -40 -20 -22
-7 -40 -16 -40 -20 0 -4 -15 -14 -32 -21 -18 -7 -38 -18 -45 -24 -30 -25 -40
-32 -70 -44 -18 -7 -33 -17 -33 -21 0 -4 -19 -13 -42 -20 -24 -7 -46 -17 -50
-24 -6 -8 -8 -7 -8 2 0 7 14 18 30 23 17 6 30 15 30 20 0 5 6 9 14 9 8 0 24
11 37 25 13 13 28 25 32 25 4 0 21 13 37 30 16 16 33 30 38 30 6 0 21 15 35
33 14 19 49 58 77 88 29 30 59 68 67 84 9 17 22 34 29 38 8 4 23 26 34 48 11
21 25 39 30 39 6 0 10 5 10 10 0 11 33 60 63 94 9 11 17 25 17 30 0 6 10 23
23 37 25 29 40 51 63 97 9 17 19 32 23 32 4 0 21 28 37 63 16 34 32 64 37 65
4 2 16 23 27 47 11 24 23 45 28 47 4 1 20 29 36 61 15 31 31 57 34 57 4 0 12
12 19 28 6 15 20 46 30 70 10 23 21 42 25 42 3 0 19 26 34 58 16 31 32 59 36
60 5 2 17 23 28 47 11 24 23 45 28 47 10 4 62 111 62 126 0 7 4 12 9 12 6 0
22 27 37 60 15 33 30 60 33 60 7 0 51 93 51 106 0 4 6 12 13 18 8 6 22 32 31
59 10 26 23 53 30 60 7 6 24 46 40 87 15 41 31 77 35 80 4 3 20 40 36 83 15
42 31 77 35 77 4 0 17 34 29 75 12 41 25 75 29 75 4 0 19 41 32 92 14 50 30
96 36 102 5 6 23 62 39 124 16 61 32 112 37 112 4 0 8 8 8 18 0 9 9 36 20 60
28 62 52 57 76 -15 10 -32 23 -61 29 -65 15 -11 14 -506 -1 -516 -6 -4 -14
-34 -18 -67 -9 -75 -36 -198 -45 -205 -4 -3 -20 -54 -35 -115 -16 -60 -32
-112 -35 -115 -8 -6 -61 -170 -61 -187 0 -7 -4 -13 -9 -13 -11 0 -21 -38 -15
-54 3 -7 20 -18 39 -25 19 -7 35 -16 35 -21 0 -4 20 -14 45 -21 25 -7 45 -17
45 -21 0 -4 20 -13 45 -19 25 -6 45 -15 45 -19 0 -4 29 -14 65 -21 36 -7 65
-16 65 -19 0 -4 32 -13 70 -20 39 -7 70 -16 70 -20 0 -3 27 -12 60 -19 33 -8
60 -17 60 -22 0 -4 18 -13 40 -19 22 -6 40 -15 40 -20 0 -5 18 -14 40 -20 22
-6 40 -15 40 -19 0 -17 90 -34 128 -25 l36 9 25 135 c13 74 27 137 31 140 7 6
61 332 60 368 0 12 4 22 9 22 4 0 11 28 15 63 17 149 36 398 36 464 0 44 4 73
11 75 16 5 19 1006 3 1016 -6 4 -14 50 -17 102 -9 141 -39 394 -47 400 -4 3
-12 41 -19 85 -17 118 -44 259 -51 265 -3 3 -19 61 -34 130 -16 69 -31 127
-35 130 -4 3 -20 59 -36 125 -15 66 -31 122 -34 125 -8 6 -51 139 -51 158 0 7
-4 12 -8 12 -4 0 -21 42 -36 93 -16 50 -33 94 -37 97 -4 3 -20 39 -35 80 -14
41 -30 77 -34 80 -4 3 -18 33 -30 68 -12 34 -27 62 -31 62 -5 0 -9 5 -9 11 0
13 -51 131 -60 139 -3 3 -16 30 -30 60 -13 30 -30 60 -37 66 -7 6 -13 15 -13
19 0 10 -52 118 -60 125 -4 3 -10 12 -14 20 -14 30 -34 63 -43 69 -4 3 -21 30
-36 60 -16 29 -37 63 -48 74 -10 11 -19 26 -19 31 0 6 -10 23 -22 36 -27 30
-68 87 -68 94 0 3 -14 20 -30 38 -17 18 -33 41 -36 51 -3 10 -15 28 -27 41
-12 13 -37 39 -54 58 -18 19 -33 40 -33 45 0 6 -15 26 -32 45 -47 50 -96 106
-148 167 -25 29 -51 58 -58 65 -35 29 -112 111 -112 118 0 4 -7 8 -15 8 -8 0
-25 16 -37 35 -13 19 -28 35 -33 35 -6 0 -22 12 -36 28 -15 15 -57 54 -94 87
-37 33 -83 75 -102 93 -19 17 -37 32 -41 32 -3 0 -17 11 -31 24 -84 79 -103
96 -110 96 -3 0 -21 12 -38 28 -17 15 -43 36 -57 47 -14 11 -35 27 -45 36 -11
8 -32 24 -47 35 -15 10 -35 27 -46 37 -10 9 -21 17 -25 17 -5 0 -19 12 -32 25
-13 14 -27 25 -33 25 -5 0 -15 6 -23 13 -25 24 -50 42 -78 56 -15 8 -27 18
-27 23 0 4 -6 8 -13 8 -7 0 -22 8 -33 18 -10 9 -31 23 -46 29 -16 7 -28 17
-28 22 0 5 -16 15 -35 21 -19 6 -35 15 -35 20 0 4 -13 13 -30 20 -16 7 -30 16
-30 20 0 5 -16 14 -35 20 -19 6 -35 15 -35 20 0 5 -16 14 -35 20 -19 6 -35 15
-35 20 0 5 -16 14 -35 20 -19 6 -35 15 -35 19 0 4 -18 13 -40 20 -22 6 -40 15
-40 19 0 5 -16 14 -35 21 -19 7 -35 16 -35 19 0 4 -20 14 -45 21 -25 7 -45 17
-45 21 0 5 -13 11 -30 15 -16 4 -30 11 -30 15 0 5 -18 15 -40 21 -22 7 -40 16
-40 20 0 5 -18 13 -40 19 -22 6 -40 15 -40 19 0 5 -20 14 -45 21 -25 7 -45 16
-45 20 0 4 -20 13 -45 20 -25 7 -45 16 -45 20 0 4 -20 13 -45 19 -25 6 -45 15
-45 20 0 4 -25 14 -55 21 -30 7 -55 17 -55 21 0 4 -22 12 -50 19 -27 7 -50 15
-50 20 0 4 -27 13 -60 20 -33 7 -60 16 -60 20 0 4 -31 13 -70 20 -38 7 -70 16
-70 20 0 4 -31 13 -70 20 -38 7 -70 16 -70 20 0 4 -34 13 -75 19 -41 7 -75 16
-75 20 0 5 -40 14 -90 21 -49 7 -90 16 -90 20 0 4 -42 13 -92 20 -51 7 -95 17
-98 21 -3 4 -56 13 -117 20 -62 7 -113 16 -113 20 0 4 -51 10 -112 14 -62 4
-115 11 -118 15 -3 5 -125 13 -270 20 -274 11 -959 -2 -970 -19 -3 -5 -63 -12
-135 -16 -71 -4 -132 -10 -135 -14 -3 -4 -68 -13 -145 -20 -77 -8 -142 -17
-145 -21 -3 -4 -60 -13 -127 -20 -68 -7 -123 -16 -123 -20 0 -4 -47 -13 -105
-20 -58 -7 -105 -16 -105 -20 0 -4 -40 -13 -90 -20 -49 -7 -90 -16 -90 -20 0
-3 -36 -12 -80 -19 -44 -8 -80 -17 -80 -21 0 -4 -36 -13 -80 -21 -44 -7 -80
-16 -80 -20 0 -4 -31 -13 -70 -20 -38 -7 -70 -15 -70 -20 0 -4 -29 -13 -65
-20 -36 -7 -65 -16 -65 -20 0 -4 -29 -13 -65 -20 -36 -7 -65 -16 -65 -20 0 -4
-25 -13 -55 -19 -30 -6 -55 -15 -55 -19 0 -5 -27 -14 -60 -20 -33 -7 -60 -16
-60 -20 0 -4 -25 -14 -55 -21 -30 -7 -55 -17 -55 -21 0 -4 -22 -12 -50 -19
-27 -7 -50 -15 -50 -19 0 -4 -22 -14 -50 -21 -27 -7 -50 -17 -50 -21 0 -5 -16
-11 -35 -15 -19 -3 -35 -10 -35 -15 0 -5 -20 -14 -45 -20 -25 -6 -45 -14 -45
-18 0 -4 -20 -13 -45 -20 -25 -7 -45 -16 -45 -20 0 -4 -22 -14 -50 -21 -27 -7
-50 -17 -50 -22 0 -4 -20 -13 -45 -19 -25 -6 -45 -15 -45 -19 0 -4 -18 -12
-40 -19 -22 -6 -40 -15 -40 -19 0 -4 -20 -14 -45 -21 -25 -7 -45 -17 -45 -21
0 -4 -20 -13 -45 -20 -25 -7 -45 -16 -45 -21 0 -4 -16 -13 -35 -19 -19 -6 -35
-15 -35 -20 0 -4 -13 -10 -29 -13 -16 -3 -35 -12 -43 -20 -7 -8 -32 -20 -53
-28 -22 -8 -46 -20 -53 -26 -7 -7 -24 -16 -38 -19 -13 -3 -24 -10 -24 -14 0
-5 -16 -14 -35 -21 -19 -7 -35 -16 -35 -20 0 -4 -15 -13 -32 -20 -31 -12 -41
-19 -71 -44 -7 -6 -27 -17 -44 -24 -18 -7 -33 -16 -33 -20 0 -4 -17 -13 -37
-20 -21 -8 -43 -19 -49 -25 -29 -28 -51 -42 -81 -55 -18 -7 -33 -17 -33 -22 0
-5 -6 -9 -13 -9 -7 0 -23 -9 -35 -20 -12 -11 -26 -20 -32 -20 -5 0 -18 -8 -28
-18 -10 -10 -32 -24 -50 -31 -18 -7 -32 -18 -32 -23 0 -5 -13 -14 -30 -19 -16
-6 -30 -15 -30 -20 0 -6 -13 -15 -30 -20 -16 -6 -30 -15 -30 -20 0 -6 -13 -15
-30 -20 -16 -6 -30 -15 -30 -20 0 -5 -12 -15 -27 -22 -15 -6 -36 -20 -45 -29
-10 -10 -25 -18 -33 -18 -8 0 -15 -5 -15 -10 0 -6 -12 -16 -27 -23 -16 -6 -40
-24 -55 -39 -15 -16 -31 -28 -36 -28 -5 0 -20 -10 -34 -22 -14 -13 -37 -32
-52 -42 -45 -33 -33 -43 69 -56 52 -7 95 -16 95 -21 0 -12 -68 -11 -72 1 -1 5
-41 12 -88 16 -74 5 -88 4 -108 -12 -12 -11 -34 -28 -48 -39 -14 -11 -40 -32
-57 -47 -17 -16 -35 -28 -40 -28 -5 0 -23 -16 -41 -35 -19 -19 -37 -35 -41
-35 -5 0 -15 -7 -24 -15 -41 -39 -86 -75 -92 -75 -7 0 -33 -23 -114 -101 -12
-10 -24 -19 -27 -19 -4 0 -37 -29 -73 -65 -37 -36 -70 -65 -74 -65 -4 0 -17
-10 -29 -22 -12 -13 -35 -34 -52 -48 -35 -29 -116 -102 -145 -130 -12 -11 -25
-20 -30 -20 -6 0 -19 -14 -30 -30 -11 -16 -24 -30 -30 -30 -5 0 -21 -12 -35
-26 -61 -63 -233 -224 -239 -224 -3 0 -15 -14 -26 -30 -11 -17 -27 -32 -36
-35 -9 -3 -27 -21 -40 -40 -13 -19 -29 -35 -36 -35 -6 0 -24 -18 -40 -40 -15
-22 -32 -40 -37 -40 -12 0 -186 -179 -186 -191 0 -5 -5 -9 -12 -9 -13 0 -108
-99 -108 -112 0 -5 -6 -8 -14 -8 -7 0 -26 -18 -41 -40 -15 -22 -31 -40 -35
-40 -4 0 -18 -16 -31 -35 -13 -19 -29 -35 -34 -35 -6 0 -30 -24 -55 -52 -25
-29 -74 -82 -110 -119 -36 -36 -85 -89 -110 -118 -25 -29 -56 -65 -70 -80 -14
-15 -35 -38 -47 -52 -12 -13 -28 -29 -35 -35 -7 -6 -42 -44 -78 -84 -36 -40
-76 -86 -90 -101 -14 -15 -45 -51 -70 -80 -25 -29 -56 -65 -70 -80 -14 -15
-45 -51 -70 -80 -25 -28 -56 -64 -70 -79 -14 -15 -43 -49 -65 -75 -22 -27 -51
-61 -65 -75 -14 -15 -45 -51 -70 -80 -25 -29 -56 -65 -70 -80 -23 -25 -75 -85
-130 -149 -11 -13 -20 -27 -20 -30 0 -4 -17 -25 -37 -48 -21 -22 -56 -62 -78
-88 -22 -26 -57 -65 -77 -88 -21 -23 -38 -44 -38 -48 0 -3 -9 -17 -20 -30 -63
-74 -109 -127 -142 -163 -21 -23 -38 -44 -38 -47 0 -3 -9 -17 -20 -30 -61 -71
-109 -127 -137 -158 -18 -19 -33 -40 -33 -47 0 -6 -15 -27 -32 -46 -73 -78
-128 -143 -128 -150 0 -5 -8 -16 -17 -26 -10 -11 -38 -43 -63 -72 -25 -29 -53
-60 -62 -69 -10 -8 -18 -20 -18 -26 0 -6 -17 -29 -37 -52 -92 -101 -113 -126
-113 -137 0 -6 -30 -42 -66 -81 -36 -38 -72 -82 -80 -97 -8 -15 -24 -38 -37
-51 -54 -57 -107 -121 -107 -130 0 -5 -10 -19 -23 -31 -38 -38 -117 -130 -117
-138 0 -5 -8 -17 -17 -27 -10 -11 -36 -41 -58 -67 -22 -26 -50 -58 -62 -70
-13 -12 -23 -26 -23 -31 0 -9 -40 -57 -118 -142 -17 -19 -32 -40 -32 -46 0 -5
-31 -43 -69 -84 -38 -41 -75 -86 -83 -100 -7 -13 -22 -35 -33 -46 -11 -12 -38
-43 -60 -69 -22 -26 -52 -61 -67 -77 -16 -16 -28 -33 -28 -39 0 -5 -12 -22
-27 -38 -16 -16 -48 -53 -73 -82 -25 -29 -57 -66 -72 -82 -16 -16 -28 -33 -28
-38 0 -5 -12 -22 -27 -38 -16 -16 -46 -51 -68 -77 -22 -26 -56 -66 -77 -88
-20 -22 -42 -51 -50 -65 -7 -14 -31 -45 -53 -68 -22 -23 -60 -66 -85 -95 -75
-88 -114 -131 -136 -153 -12 -12 -29 -35 -38 -53 -9 -18 -22 -36 -29 -40 -7
-4 -26 -26 -43 -47 -16 -22 -38 -49 -49 -61 -11 -12 -49 -55 -85 -95 -36 -40
-76 -86 -90 -101 -14 -15 -41 -46 -60 -69 -19 -23 -41 -48 -47 -55 -7 -8 -13
-17 -13 -22 0 -5 -8 -16 -17 -24 -10 -9 -38 -40 -63 -70 -25 -29 -54 -63 -65
-74 -11 -12 -32 -37 -47 -57 -15 -20 -47 -57 -70 -81 -24 -25 -63 -69 -88 -98
-25 -29 -56 -65 -70 -80 -14 -15 -45 -51 -70 -80 -25 -29 -56 -65 -70 -79 -14
-15 -43 -49 -65 -75 -22 -26 -51 -60 -65 -76 -14 -15 -45 -51 -70 -80 -25 -28
-56 -64 -70 -79 -14 -15 -45 -51 -70 -80 -41 -48 -98 -107 -132 -136 -7 -7
-33 -36 -58 -65 -57 -67 -98 -114 -130 -150 -14 -15 -45 -51 -70 -80 -25 -29
-56 -65 -70 -80 -14 -15 -45 -51 -70 -80 -25 -29 -74 -83 -110 -119 -68 -70
-108 -114 -175 -194 -37 -44 -95 -105 -127 -132 -7 -7 -33 -36 -58 -65 -25
-29 -74 -83 -110 -120 -36 -36 -86 -88 -112 -115 -25 -27 -52 -54 -60 -60 -7
-6 -31 -33 -53 -59 -22 -26 -46 -52 -54 -58 -7 -7 -25 -25 -40 -41 -41 -45
-91 -95 -105 -103 -7 -5 -25 -25 -40 -45 -16 -21 -35 -38 -42 -38 -8 0 -14 -4
-14 -9 0 -11 -169 -181 -180 -181 -4 0 -18 -16 -31 -35 -13 -19 -30 -35 -36
-35 -7 0 -23 -16 -35 -35 -13 -19 -29 -35 -35 -35 -7 0 -20 -11 -29 -25 -9
-13 -23 -27 -32 -30 -10 -2 -26 -18 -37 -35 -11 -16 -25 -30 -30 -30 -6 0 -22
-12 -37 -28 -14 -15 -46 -45 -72 -67 -25 -22 -71 -64 -102 -92 -30 -29 -58
-53 -62 -53 -3 0 -17 -11 -31 -24 -83 -78 -103 -96 -109 -96 -7 0 -22 -13 -89
-79 -23 -23 -45 -41 -48 -41 -4 0 -17 -9 -29 -20 -42 -39 -81 -70 -89 -70 -4
0 -22 -16 -40 -35 -17 -19 -36 -35 -42 -35 -5 0 -21 -12 -34 -25 -13 -14 -27
-25 -32 -25 -5 0 -23 -13 -39 -30 -16 -17 -34 -30 -40 -30 -5 0 -15 -9 -22
-20 -7 -11 -18 -20 -25 -20 -7 0 -24 -11 -39 -25 -15 -14 -30 -25 -34 -25 -4
0 -19 -10 -33 -22 -27 -25 -58 -49 -96 -76 -13 -9 -32 -25 -43 -35 -10 -9 -21
-17 -26 -17 -4 0 -19 -10 -34 -23 -14 -12 -39 -31 -54 -42 -15 -11 -32 -24
-38 -30 -6 -5 -23 -16 -38 -24 -16 -8 -28 -18 -28 -21 0 -4 -13 -13 -30 -20
-16 -7 -30 -16 -30 -21 0 -5 -11 -14 -25 -19 -14 -5 -25 -14 -25 -19 0 -5 -14
-14 -30 -20 -16 -5 -30 -14 -30 -19 0 -5 -14 -16 -32 -23 -18 -7 -40 -21 -50
-31 -10 -10 -25 -18 -33 -18 -8 0 -15 -4 -15 -8 0 -5 -12 -15 -27 -23 -30 -15
-45 -25 -72 -49 -9 -9 -31 -22 -49 -29 -18 -7 -32 -17 -32 -22 0 -5 -6 -9 -13
-9 -7 0 -22 -8 -33 -18 -10 -10 -34 -24 -52 -31 -17 -7 -32 -16 -32 -20 0 -4
-16 -13 -35 -20 -19 -7 -35 -16 -35 -20 0 -5 -13 -14 -30 -21 -17 -7 -30 -16
-30 -20 0 -4 -11 -11 -25 -14 -14 -4 -25 -10 -25 -15 0 -5 -16 -15 -35 -21
-19 -6 -35 -15 -35 -20 0 -5 -16 -14 -35 -20 -19 -6 -35 -16 -35 -20 0 -5 -18
-14 -40 -20 -22 -6 -40 -14 -40 -18 0 -5 -16 -14 -35 -21 -19 -7 -35 -16 -35
-20 0 -4 -16 -13 -35 -20 -19 -7 -35 -16 -35 -21 0 -4 -20 -14 -45 -21 -25 -7
-45 -16 -45 -20 0 -4 -15 -13 -32 -20 -18 -7 -39 -19 -47 -27 -7 -7 -26 -16
-42 -19 -16 -3 -29 -9 -29 -13 0 -5 -16 -14 -35 -20 -19 -6 -35 -15 -35 -20 0
-4 -13 -10 -29 -13 -16 -3 -35 -12 -43 -20 -7 -8 -30 -20 -51 -26 -20 -7 -37
-16 -37 -20 0 -4 -23 -14 -50 -21 -28 -7 -50 -17 -50 -21 0 -5 -18 -13 -40
-19 -22 -6 -40 -15 -40 -20 0 -6 -9 -10 -19 -10 -11 0 -26 -6 -34 -14 -8 -8
-33 -19 -55 -26 -23 -6 -42 -14 -42 -18 0 -5 -22 -14 -50 -21 -27 -7 -50 -16
-50 -21 0 -4 -22 -13 -50 -20 -27 -7 -50 -15 -50 -19 0 -4 -23 -14 -50 -21
-28 -7 -50 -17 -50 -21 0 -4 -23 -12 -50 -19 -27 -7 -50 -15 -50 -19 0 -4 -25
-14 -55 -21 -30 -7 -55 -17 -55 -21 0 -4 -23 -12 -50 -19 -28 -7 -50 -15 -50
-19 0 -4 -25 -14 -55 -21 -30 -7 -55 -16 -55 -20 0 -3 -27 -12 -60 -19 -33 -8
-60 -17 -60 -21 0 -4 -28 -13 -63 -20 -34 -7 -65 -17 -68 -22 -3 -5 -33 -14
-67 -20 -34 -6 -62 -15 -62 -19 0 -4 -29 -13 -65 -20 -36 -7 -65 -16 -65 -20
0 -4 -34 -13 -75 -20 -41 -7 -75 -16 -75 -20 0 -4 -34 -13 -75 -20 -41 -7 -75
-16 -75 -20 0 -4 -24 -10 -53 -14 -28 -4 -55 -11 -58 -16 -3 -5 -42 -14 -87
-21 -45 -6 -82 -14 -82 -18 0 -4 -44 -13 -97 -20 -54 -7 -100 -16 -103 -20 -3
-4 -54 -14 -115 -21 -60 -7 -112 -16 -115 -20 -3 -4 -79 -13 -170 -20 -92 -7
-168 -17 -172 -23 -9 -14 -677 -13 -686 1 -4 5 -72 15 -152 22 -80 7 -147 16
-150 20 -3 5 -44 14 -92 21 -49 7 -88 16 -88 20 0 4 -34 13 -75 19 -41 7 -75
16 -75 20 0 4 -31 13 -70 20 -38 7 -70 16 -70 21 0 4 -22 11 -50 15 -27 4 -50
11 -50 16 0 4 -27 14 -60 21 -33 6 -60 15 -60 18 0 4 -19 13 -42 20 -24 8 -45
17 -48 20 -3 3 -24 12 -47 20 -24 7 -43 16 -43 20 0 4 -20 13 -45 20 -25 7
-45 16 -45 21 0 4 -18 14 -40 20 -22 7 -40 16 -40 20 0 4 -16 13 -35 19 -19 6
-35 15 -35 20 0 5 -16 14 -35 20 -19 6 -35 15 -35 20 0 4 -13 13 -30 19 -16 5
-30 14 -30 20 0 5 -13 14 -29 19 -16 6 -39 20 -50 31 -12 12 -28 21 -36 21 -8
0 -15 5 -15 10 0 6 -12 16 -27 23 -15 6 -35 19 -44 27 -9 8 -26 22 -39 30 -13
8 -32 23 -42 33 -10 9 -22 17 -27 17 -5 0 -19 11 -32 25 -13 13 -28 25 -32 25
-4 0 -21 14 -37 30 -16 17 -33 30 -38 30 -5 0 -18 10 -29 23 -12 12 -42 40
-68 62 -36 31 -175 161 -237 223 -37 37 -171 181 -203 218 -39 46 -52 61 -122
137 -17 19 -38 48 -47 65 -9 17 -22 35 -29 39 -8 4 -24 24 -38 43 -13 19 -34
45 -46 58 -11 14 -27 36 -35 51 -7 14 -19 30 -26 34 -6 4 -21 26 -32 48 -11
21 -25 39 -30 39 -5 0 -17 15 -25 33 -30 61 -40 77 -47 77 -4 0 -17 18 -28 40
-11 22 -25 40 -30 40 -5 0 -19 20 -30 44 -11 24 -26 50 -33 58 -7 7 -26 38
-43 68 -16 30 -32 56 -36 58 -4 2 -20 29 -35 60 -15 31 -31 59 -35 60 -5 2
-17 24 -28 48 -11 24 -24 44 -28 44 -4 0 -13 15 -21 33 -34 81 -46 103 -58
110 -7 4 -13 12 -13 18 0 11 -41 102 -50 109 -3 3 -16 30 -30 60 -14 30 -27
57 -31 60 -3 3 -18 39 -34 80 -16 41 -31 77 -35 80 -4 3 -19 40 -35 83 -15 42
-31 77 -36 77 -4 0 -11 15 -15 32 -11 51 -45 152 -53 158 -4 3 -17 41 -29 84
-12 44 -25 82 -30 85 -5 3 -13 22 -16 41 -16 82 -51 225 -56 230 -8 7 -43 181
-37 186 2 3 10 -23 17 -56 7 -33 16 -60 19 -60 4 0 20 -43 36 -95 16 -52 32
-95 36 -95 4 0 17 -29 29 -65 12 -36 26 -65 31 -65 5 0 9 -5 9 -11 0 -5 11
-35 25 -65 14 -30 25 -57 25 -61 0 -3 6 -11 13 -17 8 -6 22 -32 31 -59 10 -26
24 -53 31 -60 7 -8 25 -38 40 -68 15 -30 31 -56 35 -59 4 -3 18 -25 30 -50 12
-25 26 -47 29 -50 4 -3 16 -22 27 -43 36 -72 39 -77 46 -77 4 0 20 -24 34 -52
15 -29 35 -59 45 -66 11 -7 19 -19 19 -26 0 -7 8 -21 18 -32 26 -30 62 -82 62
-91 0 -4 14 -21 30 -37 17 -16 30 -35 30 -42 0 -6 11 -22 25 -35 13 -13 25
-28 25 -34 0 -5 16 -28 35 -49 19 -22 35 -43 35 -48 0 -4 16 -25 36 -45 19
-21 42 -50 50 -65 8 -15 24 -38 37 -50 12 -13 42 -48 67 -77 25 -28 65 -74 90
-101 25 -27 65 -73 90 -101 25 -29 55 -64 68 -77 12 -13 30 -34 38 -48 9 -13
22 -24 29 -24 7 0 25 -18 40 -40 15 -22 35 -42 44 -45 9 -3 25 -18 36 -35 11
-16 26 -30 32 -30 7 0 20 -11 29 -25 9 -14 22 -25 29 -25 7 0 20 -11 29 -25 9
-14 21 -25 25 -25 8 0 32 -21 116 -101 12 -10 24 -19 28 -19 4 0 24 -16 44
-35 61 -55 70 -63 93 -75 12 -6 29 -19 39 -28 10 -9 28 -24 41 -32 12 -8 28
-21 36 -27 7 -7 17 -13 21 -13 5 0 18 -8 29 -18 10 -10 34 -24 51 -31 18 -7
33 -16 33 -20 0 -4 16 -13 35 -20 19 -7 35 -16 35 -20 0 -4 16 -13 35 -20 19
-7 35 -16 35 -21 0 -4 20 -14 45 -21 25 -7 45 -17 45 -21 0 -3 16 -12 35 -19
19 -7 35 -16 35 -20 0 -4 20 -13 45 -20 25 -7 45 -16 45 -20 0 -3 25 -12 55
-19 30 -7 55 -17 55 -21 0 -4 26 -13 58 -19 31 -7 59 -16 62 -20 3 -4 41 -14
85 -21 44 -7 82 -16 85 -20 6 -8 224 -29 299 -29 28 0 51 -4 51 -10 0 -6 60
-10 160 -10 100 0 160 4 160 10 0 6 22 10 50 10 86 0 305 22 308 31 2 5 17 9
34 9 50 0 208 23 208 30 0 4 47 13 105 20 58 7 105 16 105 20 0 4 45 13 100
20 55 7 100 16 100 20 0 4 43 13 95 21 52 7 95 16 95 19 0 4 42 13 93 20 50 7
94 16 97 21 3 4 39 14 80 20 41 7 77 15 80 19 3 3 38 12 78 19 39 7 72 16 72
20 0 4 38 14 85 21 47 7 85 17 85 21 0 4 32 13 70 20 39 7 70 16 70 20 0 4 32
13 70 19 39 6 70 15 70 20 0 4 20 11 45 14 25 4 45 11 45 16 0 4 29 14 65 21
36 7 65 16 65 19 0 4 27 13 60 20 33 7 60 16 60 21 0 5 27 14 60 21 33 6 60
15 60 19 0 4 22 12 50 19 28 7 50 15 50 19 0 4 25 14 55 21 30 7 55 17 55 21
0 4 23 12 50 19 28 7 50 16 50 20 0 5 23 14 50 21 28 7 50 16 50 20 0 4 23 12
50 19 28 7 50 16 50 20 0 5 23 14 50 21 28 7 50 16 50 21 0 4 20 13 45 19 25
6 45 15 45 19 0 4 18 12 40 19 22 6 40 15 40 20 0 4 22 14 50 21 27 7 50 17
50 21 0 5 18 13 40 19 22 6 40 15 40 20 0 5 18 14 40 20 22 6 40 15 40 20 0 6
6 10 14 10 8 0 21 6 28 13 7 8 30 20 51 26 20 7 37 16 37 20 0 4 18 14 40 21
22 7 40 16 40 20 0 3 16 12 35 19 19 7 35 16 35 20 0 4 16 13 35 20 19 7 35
16 35 20 0 5 20 14 45 21 25 7 45 16 45 21 0 4 16 13 35 20 19 7 35 16 35 20
0 4 16 13 35 20 19 7 35 16 35 20 0 4 16 13 35 20 19 7 35 16 35 20 0 4 16 13
35 19 19 6 35 15 35 20 0 5 16 14 35 20 19 6 35 16 35 21 0 5 12 15 28 22 15
6 33 17 40 24 7 7 19 13 26 13 7 0 25 11 40 25 15 14 34 25 42 25 7 0 14 4 14
9 0 5 8 12 19 16 10 3 29 14 42 25 38 31 42 34 72 49 15 8 27 18 27 23 0 4 7
8 14 8 8 0 27 11 42 25 15 14 32 25 38 25 6 0 19 9 29 20 9 11 22 20 29 20 7
0 24 12 37 25 13 14 29 25 37 25 8 0 14 4 14 8 0 5 12 15 27 23 15 8 35 21 44
29 8 8 26 22 39 30 12 8 34 25 48 37 13 12 33 25 43 28 11 4 19 11 19 16 0 5
11 14 25 19 14 5 25 13 25 18 0 5 12 15 28 23 15 8 32 19 38 24 6 6 23 19 39
30 15 11 39 30 52 42 14 12 34 25 44 28 11 4 19 11 19 16 0 5 8 13 17 16 9 4
31 22 47 40 17 18 35 33 41 33 5 0 21 12 34 25 13 14 28 25 35 25 6 0 17 9 24
20 7 11 17 20 23 20 6 0 25 16 43 35 19 19 37 35 41 35 4 0 17 9 29 20 57 55
99 90 107 90 5 0 16 11 25 25 9 14 21 25 26 25 9 0 51 38 118 105 14 14 30 25
36 25 6 0 17 11 24 25 7 14 17 25 21 25 5 0 22 12 38 27 16 16 68 64 116 108
47 44 124 117 171 163 47 45 89 82 92 82 4 0 18 16 31 35 13 19 29 35 36 35 7
0 23 16 36 35 13 19 34 40 46 46 13 7 23 15 23 18 0 3 20 28 45 56 25 27 45
53 45 57 0 4 5 8 11 8 9 0 70 60 211 206 25 27 52 54 60 60 7 6 33 35 58 64
25 29 72 80 105 114 33 34 80 86 105 115 42 49 101 111 132 137 7 7 33 36 58
65 25 29 56 65 70 79 14 15 45 51 70 80 25 29 64 73 88 97 23 24 42 46 42 48
0 3 24 28 53 57 28 29 72 77 97 106 25 29 65 75 90 102 25 27 65 72 90 101 25
29 56 65 70 80 14 15 43 49 65 75 22 26 51 60 65 75 14 15 45 51 70 80 25 29
56 65 70 80 14 15 45 51 70 80 25 29 56 65 70 79 14 15 45 51 70 80 25 29 56
65 70 80 14 14 43 48 65 75 22 26 51 60 65 75 14 15 45 51 70 80 25 29 56 65
70 80 35 39 88 98 140 159 25 29 71 80 103 114 31 34 57 67 57 74 0 7 12 25
27 41 16 16 48 53 73 82 25 29 56 65 70 80 14 14 45 50 70 80 25 29 55 62 68
73 12 11 22 26 22 32 0 7 15 28 33 47 17 20 50 57 72 83 43 51 73 84 122 138
17 19 38 48 46 63 9 16 24 36 34 45 10 9 38 40 63 69 25 29 60 68 78 88 17 19
32 40 32 47 0 6 10 21 23 32 12 11 42 44 67 73 25 29 57 67 73 84 15 17 27 35
27 41 0 5 17 28 38 51 77 84 122 137 122 145 0 4 10 19 23 31 19 21 57 65 127
147 11 13 20 27 20 30 0 4 18 27 41 51 22 25 51 56 63 70 13 14 29 36 36 50 7
14 25 39 40 55 85 92 100 110 100 120 0 5 30 42 66 80 36 39 72 82 80 97 8 15
24 38 37 51 49 51 107 120 107 127 0 8 30 45 93 113 20 23 37 44 37 48 0 3 9
17 20 30 75 88 108 126 128 145 12 12 22 26 22 31 0 9 40 57 118 142 17 19 32
40 32 46 0 6 15 27 33 46 73 80 127 144 127 151 0 5 8 16 18 26 9 11 37 43 62
72 25 29 55 62 68 73 12 11 22 26 22 32 0 7 15 28 33 47 17 20 52 59 77 88 25
29 55 64 68 78 12 14 22 29 22 34 0 4 12 21 28 37 15 17 47 53 72 82 79 93
114 132 138 154 12 12 22 27 22 32 0 6 15 27 33 46 17 20 52 60 77 88 78 91
104 121 130 150 14 15 45 51 70 80 25 29 56 65 70 80 14 15 45 51 70 80 25 29
56 65 70 79 14 15 45 51 70 80 25 29 56 65 70 80 14 15 40 45 58 66 92 107
124 143 202 224 90 93 170 183 183 206 4 8 14 14 22 14 8 0 18 6 22 14 12 22
81 101 153 175 104 109 149 155 166 171 64 62 194 203 194 211 0 5 5 9 11 9 6
0 66 56 134 125 68 69 127 125 132 125 4 0 19 16 32 35 13 19 31 37 40 40 9 3
25 18 36 35 11 17 27 33 37 35 9 3 23 17 32 30 9 14 22 25 29 25 6 0 21 14 32
30 11 17 27 33 37 35 9 3 23 17 32 30 9 14 22 25 29 25 6 0 21 14 32 30 11 16
25 30 32 30 6 0 18 8 25 18 7 11 24 25 38 32 13 7 31 19 38 27 7 7 20 13 28
13 8 0 14 4 14 9 0 5 17 15 37 22 20 6 46 20 57 30 11 11 26 19 33 19 7 0 13
4 13 9 0 5 14 14 30 21 17 7 30 16 30 20 0 4 15 14 33 21 17 7 43 25 57 39 14
14 37 31 53 37 15 7 27 17 27 22 0 5 14 14 30 21 17 7 30 16 30 21 0 4 8 10
19 14 10 3 30 16 44 28 27 24 58 48 96 75 13 9 32 25 43 35 10 9 22 17 27 17
5 0 19 11 32 25 13 13 28 25 33 25 4 0 54 46 110 103 68 68 110 121 129 158
15 31 27 59 27 62 0 11 62 67 74 67 6 0 22 12 35 25 13 14 29 25 37 25 8 0 14
4 14 8 0 5 12 15 27 23 26 13 48 29 77 54 6 6 23 16 39 24 15 8 27 18 27 23 0
4 6 8 13 8 7 0 22 8 33 18 10 10 27 21 37 25 9 3 17 10 17 15 0 5 14 15 30 22
17 7 30 16 30 20 0 4 14 14 32 21 18 7 40 20 49 29 34 30 48 40 57 40 4 0 17
8 28 18 10 10 34 24 52 31 17 7 32 17 32 21 0 4 14 13 30 20 17 7 30 15 30 19
0 4 16 13 35 20 19 7 35 16 35 20 0 4 16 13 35 20 19 7 35 16 35 20 0 4 16 13
35 20 19 7 35 16 35 19 0 4 20 14 45 21 25 7 45 17 45 22 0 4 18 13 40 19 22
6 40 15 40 20 0 5 18 14 40 20 22 6 40 15 40 19 0 5 13 11 29 14 16 3 35 12
42 19 8 8 34 20 59 28 25 8 51 20 58 27 7 7 22 13 33 13 10 0 19 4 19 10 0 5
18 15 40 21 22 7 40 15 40 19 0 4 20 13 45 20 25 7 45 16 45 19 0 4 21 13 48
21 26 7 53 19 60 26 7 7 28 16 47 20 19 3 35 10 35 15 0 5 20 14 45 20 25 6
45 15 45 19 0 5 23 14 50 21 28 7 50 16 50 20 0 3 20 12 45 19 25 7 45 16 45
20 0 4 25 13 55 20 30 7 55 16 55 20 0 4 20 13 45 20 25 7 45 16 45 20 0 4 25
13 55 20 30 7 55 17 55 21 0 4 23 12 50 19 28 7 50 15 50 19 0 4 25 14 55 21
30 7 55 17 55 21 0 4 23 12 50 19 28 7 50 15 50 19 0 4 25 13 55 20 30 7 55
16 55 21 0 4 16 11 35 14 19 4 35 10 35 15 0 4 25 14 55 21 30 7 55 16 55 20
0 4 25 12 55 19 30 7 55 16 55 20 0 4 25 14 55 21 30 7 55 16 55 20 0 4 27 13
60 20 33 7 60 16 60 21 0 4 25 13 55 20 30 7 55 15 55 19 0 4 33 13 73 20 39
8 74 17 77 22 3 4 41 13 83 20 42 6 77 15 77 19 0 4 45 12 100 19 55 7 100 16
100 20 0 4 50 13 110 20 61 7 110 17 110 21 0 5 20 9 45 9 39 0 47 4 55 24 7
20 18 25 66 31 32 4 60 3 61 -2 9 -24 23 -37 31 -27 4 6 77 17 167 24 88 8
162 17 165 20 6 9 332 30 453 30 51 0 87 4 87 10 0 6 132 10 375 10 243 0 375
-4 375 -10z m-8357 -1913 c-29 -5 -53 -14 -53 -18 0 -5 -9 -9 -20 -9 -25 0
-113 -23 -120 -31 -3 -3 -35 -12 -72 -19 -38 -8 -68 -17 -68 -20 0 -4 -27 -13
-60 -20 -33 -7 -60 -16 -60 -20 0 -4 -29 -13 -65 -20 -36 -7 -65 -16 -65 -20
0 -5 -25 -14 -55 -20 -30 -6 -55 -15 -55 -19 0 -4 -27 -13 -60 -19 -33 -7 -60
-16 -60 -20 0 -4 -27 -14 -60 -21 -33 -8 -60 -17 -60 -22 0 -5 -18 -12 -40
-15 -22 -4 -40 -10 -40 -14 0 -4 -25 -13 -55 -20 -30 -7 -55 -16 -55 -20 0 -4
-20 -13 -45 -19 -25 -6 -45 -15 -45 -19 0 -5 -22 -14 -50 -21 -27 -7 -50 -16
-50 -21 0 -4 -20 -13 -45 -19 -25 -6 -45 -15 -45 -20 0 -5 -25 -15 -55 -22
-30 -7 -55 -15 -55 -19 0 -4 -20 -13 -45 -19 -25 -6 -45 -15 -45 -20 0 -5 -20
-14 -45 -20 -25 -6 -45 -15 -45 -19 0 -5 -22 -14 -50 -21 -27 -7 -50 -16 -50
-21 0 -4 -20 -13 -45 -20 -25 -7 -45 -16 -45 -21 0 -4 -18 -14 -40 -20 -22 -7
-40 -15 -40 -19 0 -4 -20 -13 -45 -20 -25 -7 -45 -16 -45 -20 0 -4 -20 -13
-45 -19 -25 -6 -45 -15 -45 -20 0 -5 -20 -14 -45 -20 -25 -6 -45 -15 -45 -19
0 -5 -22 -14 -50 -21 -27 -7 -50 -17 -50 -21 0 -5 -13 -11 -30 -15 -16 -4 -30
-10 -30 -14 0 -4 -19 -14 -42 -21 -24 -8 -45 -17 -48 -20 -3 -3 -24 -12 -47
-20 -24 -7 -43 -16 -43 -20 0 -4 -20 -13 -45 -20 -25 -7 -45 -16 -45 -20 0 -5
-22 -13 -50 -20 -27 -7 -50 -16 -50 -20 0 -5 -22 -14 -50 -21 -27 -7 -50 -16
-50 -20 0 -4 -20 -13 -45 -20 -25 -7 -45 -16 -45 -20 0 -3 -25 -12 -55 -19
-30 -7 -55 -16 -55 -20 0 -5 -20 -14 -45 -21 -25 -7 -45 -17 -45 -20 0 -4 -25
-13 -55 -20 -30 -7 -55 -15 -55 -19 0 -5 -20 -14 -45 -21 -25 -7 -45 -17 -45
-20 0 -4 -25 -13 -55 -20 -30 -7 -55 -16 -55 -20 0 -4 -22 -12 -50 -19 -27 -7
-50 -15 -50 -20 0 -4 -27 -13 -60 -20 -33 -7 -60 -16 -60 -20 0 -5 -22 -13
-50 -20 -27 -7 -50 -16 -50 -20 0 -5 -20 -12 -45 -16 -25 -3 -45 -10 -45 -14
0 -4 -22 -13 -50 -20 -27 -7 -50 -15 -50 -19 0 -4 -25 -14 -55 -21 -30 -7 -55
-17 -55 -21 0 -4 -22 -12 -50 -19 -27 -7 -50 -15 -50 -19 0 -4 -25 -14 -55
-21 -30 -7 -55 -17 -55 -21 0 -5 -27 -14 -60 -21 -33 -6 -60 -15 -60 -19 0 -4
-25 -13 -55 -19 -30 -6 -55 -15 -55 -19 0 -4 -28 -13 -62 -19 -34 -6 -64 -15
-67 -20 -3 -5 -33 -14 -65 -20 -33 -7 -62 -16 -65 -21 -3 -4 -36 -14 -73 -21
-38 -7 -68 -16 -68 -20 0 -4 -29 -13 -65 -20 -36 -7 -65 -15 -65 -19 0 -4 -28
-13 -62 -19 -34 -6 -64 -15 -67 -20 -3 -5 -36 -15 -73 -22 -38 -7 -68 -15 -68
-19 0 -4 -29 -13 -65 -20 -36 -7 -65 -16 -65 -20 0 -4 -34 -13 -75 -20 -41 -7
-75 -16 -75 -21 0 -4 -22 -11 -50 -15 -27 -4 -50 -10 -50 -14 0 -4 -31 -14
-70 -21 -38 -7 -70 -16 -70 -20 0 -4 -34 -13 -75 -19 -41 -7 -75 -16 -75 -20
0 -4 -31 -13 -70 -20 -38 -7 -70 -16 -70 -21 0 -4 -36 -13 -80 -20 -44 -7 -80
-16 -80 -20 0 -5 -31 -14 -70 -21 -38 -7 -70 -15 -70 -19 0 -3 -36 -13 -80
-20 -44 -7 -80 -17 -80 -20 0 -4 -34 -13 -75 -19 -41 -7 -75 -16 -75 -20 0 -4
-38 -13 -85 -20 -47 -7 -85 -16 -85 -20 0 -4 -35 -13 -77 -19 -42 -7 -80 -16
-83 -21 -3 -4 -42 -14 -87 -21 -46 -8 -83 -16 -83 -20 0 -4 -36 -13 -80 -20
-44 -7 -80 -17 -80 -21 0 -3 -43 -12 -95 -20 -52 -7 -95 -16 -95 -19 0 -4 -40
-13 -90 -20 -49 -7 -90 -16 -90 -20 0 -4 -25 -11 -55 -15 -30 -3 -55 -10 -55
-14 0 -5 -40 -14 -90 -21 -49 -7 -90 -16 -90 -20 0 -4 -40 -13 -90 -20 -49 -7
-90 -16 -90 -20 0 -4 -38 -13 -85 -20 -47 -7 -85 -16 -85 -20 0 -4 -43 -13
-95 -21 -52 -7 -95 -16 -95 -19 0 -4 -40 -13 -90 -20 -49 -7 -90 -16 -90 -20
0 -4 -40 -13 -90 -19 -49 -7 -90 -16 -90 -21 0 -4 -45 -13 -100 -20 -55 -7
-100 -16 -100 -20 0 -4 -45 -13 -100 -20 -55 -7 -100 -16 -100 -20 0 -4 -45
-13 -100 -20 -55 -7 -100 -16 -100 -20 0 -4 -49 -13 -110 -20 -60 -8 -110 -16
-110 -20 0 -4 -49 -12 -110 -20 -60 -7 -110 -16 -110 -20 0 -4 -52 -13 -115
-20 -63 -7 -115 -16 -115 -20 0 -4 -59 -13 -130 -20 -71 -7 -130 -16 -130 -20
0 -4 -58 -13 -130 -20 -71 -7 -130 -16 -130 -20 0 -4 -46 -11 -102 -15 -57 -4
-105 -11 -108 -15 -3 -5 -102 -14 -220 -21 -118 -7 -217 -16 -220 -19 -5 -7
-479 -30 -607 -30 -42 0 -73 -4 -73 -10 0 -6 -120 -10 -340 -10 -187 0 -340 4
-340 8 0 4 -66 14 -147 21 -81 7 -150 16 -153 20 -3 4 -48 13 -100 20 -52 6
-97 16 -100 20 -3 5 -26 12 -52 16 -27 4 -48 10 -48 14 0 4 -29 13 -65 20 -36
7 -65 17 -65 21 0 4 -22 13 -50 20 -27 7 -50 15 -50 19 0 4 -20 13 -45 20 -25
7 -45 16 -45 21 0 4 -18 13 -40 20 -22 7 -40 16 -40 20 0 4 -14 14 -32 21 -18
7 -40 21 -50 31 -10 10 -25 18 -33 18 -8 0 -15 4 -15 8 0 5 -12 15 -27 23 -15
8 -40 26 -55 42 -15 15 -31 27 -36 27 -5 0 -18 10 -29 23 -11 12 -29 29 -39
38 -10 9 -39 40 -64 69 -25 29 -57 66 -73 82 -15 16 -27 34 -27 41 0 7 -12 25
-26 40 -14 15 -34 48 -45 72 -11 25 -24 45 -28 45 -5 0 -21 48 -37 108 -15 59
-31 109 -35 112 -4 3 -12 50 -18 105 -12 102 0 293 18 304 4 4 11 20 15 36 18
72 77 155 111 155 7 0 22 9 35 20 12 11 45 23 71 26 27 4 49 10 49 15 0 5 34
9 75 9 43 0 75 -4 75 -10 0 -6 -28 -10 -65 -10 -72 0 -163 -17 -181 -34 -6 -6
-27 -24 -47 -39 -20 -16 -42 -44 -49 -63 -6 -19 -16 -34 -20 -34 -4 0 -8 -56
-8 -125 0 -69 4 -125 9 -125 5 0 12 -17 15 -37 11 -61 38 -143 47 -143 5 0 9
-4 9 -10 0 -16 50 -120 58 -120 4 0 13 -13 20 -28 13 -30 174 -202 189 -202 4
0 19 -12 32 -25 13 -14 27 -25 32 -25 9 0 17 -5 52 -35 7 -6 28 -17 47 -25 19
-8 41 -20 49 -28 7 -7 26 -16 42 -19 16 -3 29 -9 29 -14 0 -5 20 -14 45 -20
25 -6 45 -15 45 -19 0 -4 27 -13 60 -21 33 -7 60 -16 60 -20 0 -3 43 -12 95
-20 52 -7 95 -16 95 -19 0 -9 206 -30 288 -30 35 0 62 -4 62 -10 0 -6 57 -10
150 -10 93 0 150 4 150 10 0 6 26 10 58 10 91 0 396 23 402 30 3 4 85 13 183
20 97 7 177 16 177 20 0 4 68 13 150 20 83 7 150 16 150 19 0 4 55 13 122 20
68 7 125 16 128 20 3 4 51 14 108 21 56 7 102 16 102 20 0 4 43 13 95 21 52 7
95 16 95 20 0 4 25 10 55 14 30 3 55 10 55 14 0 5 40 14 90 21 49 7 90 16 90
20 0 4 39 13 88 20 48 7 89 16 92 21 3 4 39 14 80 20 41 7 77 16 80 19 3 4 38
13 78 20 39 6 72 15 72 19 0 4 38 14 85 21 47 7 85 16 85 20 0 4 34 13 75 21
41 7 75 16 75 19 0 4 31 12 70 19 39 7 70 16 70 20 0 4 34 13 75 20 41 7 75
16 75 20 0 5 34 14 75 21 41 7 75 16 75 21 0 4 31 13 70 20 38 7 70 16 70 20
0 4 34 13 75 20 41 7 75 16 75 19 0 4 32 13 70 20 39 7 70 16 70 20 0 4 32 13
70 20 39 7 70 17 70 21 0 4 23 10 50 14 28 4 50 11 50 15 0 5 32 14 70 21 39
7 70 16 70 20 0 4 32 13 70 20 39 7 70 16 70 20 0 4 32 13 70 20 39 7 70 15
70 19 0 4 32 13 70 20 39 7 70 16 70 20 0 3 29 12 65 19 36 7 65 16 65 20 0 5
32 14 70 21 39 7 70 16 70 20 0 3 29 12 65 19 36 7 65 16 65 20 0 4 30 13 68
21 37 7 70 17 73 21 3 5 32 14 65 21 32 6 61 14 64 18 3 4 33 13 68 20 34 7
62 16 62 20 0 4 32 13 70 20 39 7 70 16 70 20 0 3 29 13 65 20 36 7 65 17 65
20 0 4 32 13 70 20 39 7 70 16 70 20 0 3 29 12 65 19 36 7 65 17 65 21 0 4 20
11 45 14 25 4 45 11 45 15 0 4 32 13 70 20 39 7 70 16 70 20 0 4 32 13 70 20
39 7 70 16 70 21 0 4 29 13 65 20 36 7 65 16 65 20 0 4 32 12 70 19 39 7 70
16 70 20 0 5 34 14 75 21 41 7 75 16 75 21 0 4 32 13 70 20 39 7 70 15 70 20
0 4 29 13 65 20 36 7 65 16 65 20 0 4 32 13 70 20 39 7 70 16 70 20 0 4 34 13
75 20 41 6 75 15 75 19 0 4 32 13 70 20 39 7 70 16 70 20 0 4 32 13 70 20 39
7 70 16 70 20 0 3 34 12 75 19 41 7 75 16 75 20 0 5 34 14 75 21 41 7 75 16
75 21 0 4 34 13 75 20 41 6 75 15 75 20 0 4 20 11 45 15 25 3 45 10 45 14 0 4
41 13 90 20 50 7 90 16 90 20 0 4 38 12 85 19 47 7 85 16 85 21 0 4 41 13 90
20 50 7 90 16 90 20 0 4 36 13 80 20 44 7 80 16 80 20 0 4 38 13 85 20 47 7
85 16 85 20 0 4 36 13 80 20 44 7 80 16 80 20 0 4 43 13 95 20 52 7 95 16 95
20 0 4 43 13 95 20 52 7 95 16 95 20 0 4 45 13 100 20 55 7 100 17 100 20 0 4
45 13 100 20 55 7 100 17 100 21 0 4 47 13 105 19 58 7 105 16 105 20 0 4 54
13 120 20 66 8 120 17 120 20 0 4 47 13 105 20 58 7 105 16 105 20 0 4 61 14
135 21 74 7 135 16 135 20 0 3 38 10 85 14 47 4 85 10 85 15 0 4 51 13 113 20
61 7 114 16 117 21 3 4 65 13 138 20 72 7 132 16 132 19 0 4 54 13 120 20 66
7 120 16 120 19 0 4 51 13 113 20 61 7 114 16 117 20 3 4 53 14 113 21 59 7
107 16 107 20 0 4 47 13 105 20 58 7 105 16 105 20 0 3 44 12 98 20 53 7 99
16 102 20 6 8 112 27 150 27 14 0 1 -4 -27 -10z m-43 -407 c0 -5 -7 -10 -15
-10 -8 0 -15 5 -15 10 0 6 7 10 15 10 8 0 15 -4 15 -10z m-16570 -251 c6 -23
9 -43 6 -46 -2 -3 -8 11 -11 31 -4 20 -11 36 -16 36 -5 0 -9 5 -9 10 0 26 20
5 30 -31z m19548 -396 c-10 -2 -26 -2 -35 0 -10 3 -2 5 17 5 19 0 27 -2 18 -5z
m65 -10 c-7 -2 -19 -2 -25 0 -7 3 -2 5 12 5 14 0 19 -2 13 -5z m77 -13 c0 -5
-7 -10 -15 -10 -8 0 -15 5 -15 10 0 6 7 10 15 10 8 0 15 -4 15 -10z m4818
-1096 c4 -6 33 -16 65 -23 31 -7 57 -16 57 -20 0 -4 18 -13 40 -20 22 -6 40
-16 40 -20 0 -5 13 -14 29 -21 16 -6 32 -18 35 -26 3 -8 12 -14 20 -14 9 0 20
-9 26 -20 6 -11 17 -20 24 -20 7 0 26 -19 42 -42 16 -24 37 -52 47 -63 10 -11
26 -36 35 -55 9 -19 22 -39 28 -45 7 -5 22 -41 34 -80 11 -38 25 -72 30 -75
12 -7 29 -111 40 -240 12 -142 -15 -480 -39 -500 -3 -3 -19 -54 -34 -115 -15
-60 -32 -112 -37 -115 -5 -3 -21 -39 -36 -80 -15 -41 -34 -79 -41 -83 -7 -4
-13 -13 -13 -18 0 -19 -40 -99 -50 -99 -5 0 -17 -16 -26 -36 -9 -20 -23 -38
-31 -41 -8 -3 -21 -20 -30 -37 -9 -17 -49 -64 -89 -104 -41 -41 -74 -78 -74
-83 0 -5 -5 -9 -12 -9 -7 0 -21 -9 -33 -20 -43 -43 -90 -80 -100 -80 -5 -1
-21 -14 -35 -30 -13 -17 -29 -30 -36 -30 -6 0 -21 -9 -34 -20 -13 -11 -31 -20
-41 -20 -10 0 -24 -6 -31 -13 -16 -16 -86 -37 -122 -37 -14 0 -26 -4 -26 -10
0 -6 -37 -10 -90 -10 -49 0 -90 4 -90 8 0 4 -30 13 -67 19 -36 7 -69 16 -72
20 -3 5 -46 15 -96 22 -49 7 -92 16 -95 21 -3 4 -24 13 -47 20 -24 7 -43 17
-43 22 0 4 -6 8 -12 8 -7 0 -24 12 -37 25 -13 14 -27 25 -32 25 -16 0 -179
173 -179 190 0 6 -8 18 -18 28 -9 9 -30 44 -46 77 -16 33 -33 62 -36 65 -4 3
-18 39 -31 80 -12 41 -26 77 -30 80 -9 6 -36 187 -43 290 -10 125 20 431 44
450 3 3 14 36 24 73 10 37 25 74 32 82 8 7 14 18 14 24 0 11 51 123 60 131 7
7 27 39 45 77 9 17 23 34 31 37 8 3 14 11 14 19 0 7 20 36 45 63 25 27 45 52
45 56 0 5 6 8 14 8 8 0 24 14 36 30 12 17 26 30 31 30 5 0 24 16 42 35 17 19
38 35 45 35 7 0 15 7 18 15 3 8 21 19 39 25 18 6 36 17 39 25 3 8 14 15 24 15
10 0 29 9 41 19 13 11 36 23 52 26 16 4 29 10 29 13 0 8 72 32 94 32 8 0 16 5
18 10 2 6 32 16 68 22 36 7 67 15 70 19 9 13 73 17 248 15 102 -1 176 -6 180
-12z m-6570 -13941 c-21 -2 -55 -2 -75 0 -21 2 -4 4 37 4 41 0 58 -2 38 -4z"/>
</g>
</svg>
